<?xml version="1.0" encoding="us-ascii" standalone="no"?><svg xmlns="http://www.w3.org/2000/svg" xmlns:xlink="http://www.w3.org/1999/xlink" contentStyleType="text/css" height="1956px" preserveAspectRatio="none" style="width:833px;height:1956px;background:#FFFFFF;" version="1.1" viewBox="0 0 833 1956" width="833px" zoomAndPan="magnify"><defs/><g><!--cluster StartingProcess--><g id="cluster_StartingProcess"><path d="M159.5,200 L681.5,200 A12.5,12.5 0 0 1 694,212.5 L694,221.2969 L147,221.2969 L147,212.5 A12.5,12.5 0 0 1 159.5,200 " fill="#F1F1F1" style="stroke:#F1F1F1;stroke-width:1.0;"/><rect fill="none" height="851.32" rx="12.5" ry="12.5" style="stroke:#181818;stroke-width:0.5;" width="547" x="147" y="200"/><line style="stroke:#181818;stroke-width:0.5;" x1="147" x2="694" y1="221.2969" y2="221.2969"/><text fill="#000000" font-family="sans-serif" font-size="14" lengthAdjust="spacing" textLength="140" x="350.5" y="217.9951">Starting (Processes)</text></g><!--cluster Terminating--><g id="cluster_Terminating"><path d="M19.5,1275.32 L522.5,1275.32 A12.5,12.5 0 0 1 535,1287.82 L535,1296.6169 L7,1296.6169 L7,1287.82 A12.5,12.5 0 0 1 19.5,1275.32 " fill="#F1F1F1" style="stroke:#F1F1F1;stroke-width:1.0;"/><rect fill="none" height="456.27" rx="12.5" ry="12.5" style="stroke:#181818;stroke-width:0.5;" width="528" x="7" y="1275.32"/><line style="stroke:#181818;stroke-width:0.5;" x1="7" x2="535" y1="1296.6169" y2="1296.6169"/><text fill="#000000" font-family="sans-serif" font-size="14" lengthAdjust="spacing" textLength="82" x="230" y="1293.3151">Terminating</text></g><!--cluster Stopped--><g id="cluster_Stopped"><path d="M300.5,1828.59 L366.5,1828.59 A12.5,12.5 0 0 1 379,1841.09 L379,1849.8869 L288,1849.8869 L288,1841.09 A12.5,12.5 0 0 1 300.5,1828.59 " fill="#F1F1F1" style="stroke:#F1F1F1;stroke-width:1.0;"/><rect fill="none" height="122" rx="12.5" ry="12.5" style="stroke:#181818;stroke-width:0.5;" width="91" x="288" y="1828.59"/><line style="stroke:#181818;stroke-width:0.5;" x1="288" x2="379" y1="1849.8869" y2="1849.8869"/><text fill="#000000" font-family="sans-serif" font-size="14" lengthAdjust="spacing" textLength="59" x="304" y="1846.5851">Stopped</text></g><g id="StartingProcess.qemu"><rect fill="#F1F1F1" height="50.2656" rx="12.5" ry="12.5" style="stroke:#181818;stroke-width:0.5;" width="125" x="237.5" y="524.26"/><line style="stroke:#181818;stroke-width:0.5;" x1="237.5" x2="362.5" y1="550.5569" y2="550.5569"/><text fill="#000000" font-family="sans-serif" font-size="14" lengthAdjust="spacing" textLength="76" x="262" y="542.2551">Start qemu</text><text fill="#000000" font-family="sans-serif" font-size="12" lengthAdjust="spacing" textLength="105" x="242.5" y="566.6955">entry/start qemu</text></g><g id="StartingProcess.monitor"><rect fill="#F1F1F1" height="50.2656" rx="12.5" ry="12.5" style="stroke:#181818;stroke-width:0.5;" width="227" x="186.5" y="651.53"/><line style="stroke:#181818;stroke-width:0.5;" x1="186.5" x2="413.5" y1="677.8269" y2="677.8269"/><text fill="#000000" font-family="sans-serif" font-size="14" lengthAdjust="spacing" textLength="95" x="252.5" y="669.5251">Open monitor</text><text fill="#000000" font-family="sans-serif" font-size="12" lengthAdjust="spacing" textLength="207" x="191.5" y="693.9655">entry/fire OpenSocketConnection</text></g><g id="StartingProcess.waitForConfigured"><rect fill="#F1F1F1" height="50.2656" rx="12.5" ry="12.5" style="stroke:#181818;stroke-width:0.5;" width="180" x="323" y="778.79"/><line style="stroke:#181818;stroke-width:0.5;" x1="323" x2="503" y1="805.0869" y2="805.0869"/><text fill="#000000" font-family="sans-serif" font-size="14" lengthAdjust="spacing" textLength="103" x="361.5" y="796.7851">Configure QMP</text><text fill="#000000" font-family="sans-serif" font-size="12" lengthAdjust="spacing" textLength="160" x="328" y="821.2255">entry/fire QmpCapabilities</text></g><g id="StartingProcess.configure"><rect fill="#F1F1F1" height="50.2656" rx="12.5" ry="12.5" style="stroke:#181818;stroke-width:0.5;" width="176" x="294" y="906.06"/><line style="stroke:#181818;stroke-width:0.5;" x1="294" x2="470" y1="932.3569" y2="932.3569"/><text fill="#000000" font-family="sans-serif" font-size="14" lengthAdjust="spacing" textLength="113" x="325.5" y="924.0551">Configure QEMU</text><text fill="#000000" font-family="sans-serif" font-size="12" lengthAdjust="spacing" textLength="156" x="299" y="948.4955">entry/fire ConfigureQemu</text></g><text fill="#000000" font-family="sans-serif" font-size="14" lengthAdjust="spacing" textLength="58" x="340.5" y="1070.3151">success</text><ellipse cx="369.5" cy="1051.32" fill="#F1F1F1" rx="6" ry="6" style="stroke:#181818;stroke-width:1.5;"/><line style="stroke:#181818;stroke-width:1.5;" x1="373.8891" x2="366.1109" y1="1055.7091" y2="1047.9309"/><line style="stroke:#181818;stroke-width:1.5;" x1="373.8891" x2="366.1109" y1="1047.9309" y2="1055.7091"/><text fill="#000000" font-family="sans-serif" font-size="14" lengthAdjust="spacing" textLength="33" x="246.5" y="1070.3151">error</text><ellipse cx="263" cy="1051.32" fill="#F1F1F1" rx="6" ry="6" style="stroke:#181818;stroke-width:1.5;"/><line style="stroke:#181818;stroke-width:1.5;" x1="267.3891" x2="259.6109" y1="1055.7091" y2="1047.9309"/><line style="stroke:#181818;stroke-width:1.5;" x1="267.3891" x2="259.6109" y1="1047.9309" y2="1055.7091"/><rect fill="#555555" height="8" style="stroke:none;stroke-width:1.0;" width="80" x="339" y="243"/><rect fill="#555555" height="8" style="stroke:none;stroke-width:1.0;" width="80" x="260" y="455.26"/><g id="StartingProcess.cloudInit"><rect fill="#F1F1F1" height="50.2656" rx="12.5" ry="12.5" style="stroke:#181818;stroke-width:0.5;" width="217" x="279.5" y="328"/><line style="stroke:#181818;stroke-width:0.5;" x1="279.5" x2="496.5" y1="354.2969" y2="354.2969"/><text fill="#000000" font-family="sans-serif" font-size="14" lengthAdjust="spacing" textLength="178" x="299" y="345.9951">Generate cloud-init image</text><text fill="#000000" font-family="sans-serif" font-size="12" lengthAdjust="spacing" textLength="197" x="284.5" y="370.4355">entry/generate cloud-init image</text></g><g id="StartingProcess.swtpm"><rect fill="#F1F1F1" height="50.2656" rx="12.5" ry="12.5" style="stroke:#181818;stroke-width:0.5;" width="130" x="532" y="328"/><line style="stroke:#181818;stroke-width:0.5;" x1="532" x2="662" y1="354.2969" y2="354.2969"/><text fill="#000000" font-family="sans-serif" font-size="14" lengthAdjust="spacing" textLength="82" x="556" y="345.9951">Start swtpm</text><text fill="#000000" font-family="sans-serif" font-size="12" lengthAdjust="spacing" textLength="110" x="537" y="370.4355">entry/start swtpm</text></g><text fill="#000000" font-family="sans-serif" font-size="14" lengthAdjust="spacing" textLength="66" x="344.5" y="1254.0182">terminate</text><ellipse cx="377.5" cy="1275.32" fill="#F1F1F1" rx="6" ry="6" style="stroke:#181818;stroke-width:1.5;"/><g id="elem_qemuRunning"><polygon fill="#F1F1F1" points="378,1359.32,390,1371.32,378,1383.32,366,1371.32,378,1359.32" style="stroke:#181818;stroke-width:0.5;"/></g><text fill="#000000" font-family="sans-serif" font-size="14" lengthAdjust="spacing" textLength="75" x="296" y="1750.5851">terminated</text><ellipse cx="333.5" cy="1731.59" fill="#F1F1F1" rx="6" ry="6" style="stroke:#181818;stroke-width:1.5;"/><line style="stroke:#181818;stroke-width:1.5;" x1="337.8891" x2="330.1109" y1="1735.9791" y2="1728.2009"/><line style="stroke:#181818;stroke-width:1.5;" x1="337.8891" x2="330.1109" y1="1728.2009" y2="1735.9791"/><g id="Terminating.qemuPowerdown"><rect fill="#F1F1F1" height="50.2656" rx="12.5" ry="12.5" style="stroke:#181818;stroke-width:0.5;" width="387" x="23.5" y="1460.32"/><line style="stroke:#181818;stroke-width:0.5;" x1="23.5" x2="410.5" y1="1486.6169" y2="1486.6169"/><text fill="#000000" font-family="sans-serif" font-size="14" lengthAdjust="spacing" textLength="125" x="154.5" y="1478.3151">Powerdown qemu</text><text fill="#000000" font-family="sans-serif" font-size="12" lengthAdjust="spacing" textLength="367" x="28.5" y="1502.7555">entry/suspend Stop, send powerdown to qemu, start timer</text></g><g id="Terminating.terminateProcesses"><rect fill="#F1F1F1" height="50" rx="12.5" ry="12.5" style="stroke:#181818;stroke-width:0.5;" width="198" x="235" y="1602.59"/><line style="stroke:#181818;stroke-width:0.5;" x1="235" x2="433" y1="1628.8869" y2="1628.8869"/><text fill="#000000" font-family="sans-serif" font-size="14" lengthAdjust="spacing" textLength="178" x="245" y="1620.5851">Await process termination</text></g><text fill="#000000" font-family="sans-serif" font-size="14" lengthAdjust="spacing" textLength="58" x="304.5" y="1807.2882">stopped</text><ellipse cx="333.5" cy="1828.59" fill="#F1F1F1" rx="6" ry="6" style="stroke:#181818;stroke-width:1.5;"/><ellipse cx="334" cy="1923.59" fill="none" rx="11" ry="11" style="stroke:#222222;stroke-width:1.0;"/><ellipse cx="334" cy="1923.59" fill="#222222" rx="6" ry="6" style="stroke:#222222;stroke-width:1.0;"/><ellipse cx="379" cy="16" fill="#222222" rx="10" ry="10" style="stroke:#222222;stroke-width:1.0;"/><g id="Initializing"><rect fill="#F1F1F1" height="50" rx="12.5" ry="12.5" style="stroke:#181818;stroke-width:0.5;" width="86" x="336" y="87"/><line style="stroke:#181818;stroke-width:0.5;" x1="336" x2="422" y1="113.2969" y2="113.2969"/><text fill="#000000" font-family="sans-serif" font-size="14" lengthAdjust="spacing" textLength="66" x="346" y="104.9951">Initializing</text></g><g id="Running"><rect fill="#F1F1F1" height="50" rx="12.5" ry="12.5" style="stroke:#181818;stroke-width:0.5;" width="78" x="331" y="1130.32"/><line style="stroke:#181818;stroke-width:0.5;" x1="331" x2="409" y1="1156.6169" y2="1156.6169"/><text fill="#000000" font-family="sans-serif" font-size="14" lengthAdjust="spacing" textLength="58" x="341" y="1148.3151">Running</text></g><!--link *start* to Initializing--><g id="link_*start*_Initializing"><path d="M379,26.35 C379,40.28 379,60.95 379,80.64 " fill="none" id="*start*-to-Initializing" style="stroke:#181818;stroke-width:1.0;"/><polygon fill="#181818" points="379,86.64,383,77.64,379,81.64,375,77.64,379,86.64" style="stroke:#181818;stroke-width:1.0;"/></g><!--link Initializing to Initializing--><g id="link_Initializing_Initializing"><path d="M422.31,106.86 C441,106.43 457,108.15 457,112 C457,115.84 446.9985,117.6948 428.3085,117.2748 " fill="none" id="Initializing-to-Initializing" style="stroke:#181818;stroke-width:1.0;"/><polygon fill="#181818" points="422.31,117.14,431.2179,121.3412,427.3087,117.2523,431.3976,113.3432,422.31,117.14" style="stroke:#181818;stroke-width:1.0;"/><text fill="#000000" font-family="sans-serif" font-size="13" lengthAdjust="spacing" textLength="230" x="463" y="116.5669">InitialConfiguration/configure Runner</text></g><!--link Initializing to Initializing--><g id="link_Initializing_Initializing"><path d="M422.19,105.68 C512.17,98.6 699,100.71 699,112 C699,123.28 518.1515,125.8607 428.1715,118.7807 " fill="none" id="Initializing-to-Initializing-1" style="stroke:#181818;stroke-width:1.0;"/><polygon fill="#181818" points="422.19,118.31,430.8485,123.0037,427.1746,118.7022,431.476,115.0283,422.19,118.31" style="stroke:#181818;stroke-width:1.0;"/><text fill="#000000" font-family="sans-serif" font-size="13" lengthAdjust="spacing" textLength="115" x="705" y="116.5669">Start/start Runner</text></g><!--link prepFork to cloudInit--><g id="link_prepFork_cloudInit"><path d="M378.58,251.46 C377.88,257.46 376.49,270.19 376,281 C375.66,288.54 375.18,290.49 376,298 C377.07,307.76 377.8126,312.4902 379.9826,321.6902 " fill="none" id="prepFork-to-cloudInit" style="stroke:#181818;stroke-width:1.0;"/><polygon fill="#181818" points="381.36,327.53,383.187,317.8521,380.2122,322.6635,375.4007,319.6887,381.36,327.53" style="stroke:#181818;stroke-width:1.0;"/><text fill="#000000" font-family="sans-serif" font-size="13" lengthAdjust="spacing" textLength="160" x="377" y="294.0669">[cloud-init data provided]</text></g><!--link swtpm to prepJoin--><g id="link_swtpm_prepJoin"><path d="M531.82,376.98 C458.06,402.85 349.3922,440.9452 315.4722,452.8352 " fill="none" id="swtpm-to-prepJoin" style="stroke:#181818;stroke-width:1.0;"/><polygon fill="#181818" points="309.81,454.82,319.6265,455.6176,314.5285,453.166,316.9801,448.068,309.81,454.82" style="stroke:#181818;stroke-width:1.0;"/><text fill="#000000" font-family="sans-serif" font-size="13" lengthAdjust="spacing" textLength="229" x="440" y="421.3269">FileChanged[swtpm socket created]</text></g><!--link prepFork to swtpm--><g id="link_prepFork_swtpm"><path d="M408.41,251.45 C449.11,256.66 520.05,267.35 542,281 C560.16,292.29 571.5353,306.7357 581.0653,322.4957 " fill="none" id="prepFork-to-swtpm" style="stroke:#181818;stroke-width:1.0;"/><polygon fill="#181818" points="584.17,327.63,582.9358,317.8588,581.5828,323.3514,576.0901,321.9984,584.17,327.63" style="stroke:#181818;stroke-width:1.0;"/><text fill="#000000" font-family="sans-serif" font-size="13" lengthAdjust="spacing" textLength="79" x="561" y="294.0669">[use swtpm]</text></g><!--link cloudInit to prepJoin--><g id="link_cloudInit_prepJoin"><path d="M327.01,378.47 C315.02,386.16 304,395.96 297,408.26 C288.23,423.68 293.2059,440.6723 296.4559,449.2123 " fill="none" id="cloudInit-to-prepJoin" style="stroke:#181818;stroke-width:1.0;"/><polygon fill="#181818" points="298.59,454.82,299.1273,444.9858,296.8116,450.147,291.6505,447.8312,298.59,454.82" style="stroke:#181818;stroke-width:1.0;"/><text fill="#000000" font-family="sans-serif" font-size="13" lengthAdjust="spacing" textLength="89" x="298" y="421.3269">ProcessExited</text></g><!--link prepFork to prepJoin--><g id="link_prepFork_prepJoin"><path d="M359.1,251.47 C324.44,258.7 253.86,278.99 224,328 C193.62,377.86 268.9556,436.2154 290.1356,451.3254 " fill="none" id="prepFork-to-prepJoin" style="stroke:#181818;stroke-width:1.0;"/><polygon fill="#181818" points="295.02,454.81,290.0164,446.3268,290.9496,451.9062,285.3703,452.8394,295.02,454.81" style="stroke:#181818;stroke-width:1.0;"/><text fill="#000000" font-family="sans-serif" font-size="13" lengthAdjust="spacing" textLength="36" x="225" y="357.6969">[else]</text></g><!--link prepJoin to qemu--><g id="link_prepJoin_qemu"><path d="M300,463.61 C300,473.36 300,496.38 300,517.77 " fill="none" id="prepJoin-to-qemu" style="stroke:#181818;stroke-width:1.0;"/><polygon fill="#181818" points="300,523.77,304,514.77,300,518.77,296,514.77,300,523.77" style="stroke:#181818;stroke-width:1.0;"/></g><!--link qemu to monitor--><g id="link_qemu_monitor"><path d="M300,574.84 C300,596.92 300,623.22 300,645.27 " fill="none" id="qemu-to-monitor" style="stroke:#181818;stroke-width:1.0;"/><polygon fill="#181818" points="300,651.27,304,642.27,300,646.27,296,642.27,300,651.27" style="stroke:#181818;stroke-width:1.0;"/><text fill="#000000" font-family="sans-serif" font-size="13" lengthAdjust="spacing" textLength="237" x="301" y="617.5969">FileChanged[monitor socket created]</text></g><!--link monitor to waitForConfigured--><g id="link_monitor_waitForConfigured"><path d="M322.06,702.11 C341.97,724.18 367.0922,752.0239 386.9822,774.0839 " fill="none" id="monitor-to-waitForConfigured" style="stroke:#181818;stroke-width:1.0;"/><polygon fill="#181818" points="391,778.54,387.9441,769.1772,387.6518,774.8265,382.0025,774.5343,391,778.54" style="stroke:#181818;stroke-width:1.0;"/><text fill="#000000" font-family="sans-serif" font-size="13" lengthAdjust="spacing" textLength="186" x="364" y="744.8569">ClientConnected[for monitor]</text></g><!--link monitor to error--><g id="link_monitor_error"><path d="M289.05,702.26 C274.45,736.57 249.34,801.09 240,859.06 C228.19,932.36 252.3608,1016.6361 259.4708,1039.2561 " fill="none" id="monitor-to-error" style="stroke:#181818;stroke-width:1.0;"/><polygon fill="#181818" points="261.27,1044.98,262.3872,1035.1947,259.7707,1040.2101,254.7553,1037.5936,261.27,1044.98" style="stroke:#181818;stroke-width:1.0;"/><text fill="#000000" font-family="sans-serif" font-size="13" lengthAdjust="spacing" textLength="165" x="241" y="872.1269">ConnectError[for monitor]</text></g><!--link waitForConfigured to configure--><g id="link_waitForConfigured_configure"><path d="M417.24,829.4 C418.78,843.33 419.24,860.95 415,876.06 C412.08,886.44 409.8115,891.7674 404.1115,900.6074 " fill="none" id="waitForConfigured-to-configure" style="stroke:#181818;stroke-width:1.0;"/><polygon fill="#181818" points="400.86,905.65,409.0989,900.2537,403.5696,901.4478,402.3754,895.9184,400.86,905.65" style="stroke:#181818;stroke-width:1.0;"/><text fill="#000000" font-family="sans-serif" font-size="13" lengthAdjust="spacing" textLength="100" x="418" y="872.1269">QmpConfigured</text></g><!--link configure to success--><g id="link_configure_success"><path d="M377.31,956.63 C375.7,965.9 374.04,976.57 373,986.32 C370.67,1008.23 370.2167,1028.5304 370.0967,1039.3304 " fill="none" id="configure-to-success" style="stroke:#181818;stroke-width:1.0;"/><polygon fill="#181818" points="370.03,1045.33,374.1297,1036.375,370.0856,1040.3303,366.1302,1036.2861,370.03,1045.33" style="stroke:#181818;stroke-width:1.0;"/><text fill="#000000" font-family="sans-serif" font-size="13" lengthAdjust="spacing" textLength="314" x="374" y="999.3869">ConfigureQemu (last handler)/fire cont command</text></g><!--link Initializing to prepFork--><g id="link_Initializing_prepFork"><path d="M379,137.39 C379,170.69 379,221.91 379,236.52 " fill="none" id="Initializing-to-prepFork" style="stroke:#181818;stroke-width:1.0;"/><polygon fill="#181818" points="379,242.52,383,233.52,379,237.52,375,233.52,379,242.52" style="stroke:#181818;stroke-width:1.0;"/><text fill="#000000" font-family="sans-serif" font-size="13" lengthAdjust="spacing" textLength="48" x="380" y="180.0669">Started</text></g><!--link success to Running--><g id="link_success_Running"><path d="M370,1057.24 C370,1070.14 370,1099.59 370,1123.88 " fill="none" id="success-to-Running" style="stroke:#181818;stroke-width:1.0;"/><polygon fill="#181818" points="370,1129.88,374,1120.88,370,1124.88,366,1120.88,370,1129.88" style="stroke:#181818;stroke-width:1.0;"/></g><!--link terminate to qemuRunning--><g id="link_terminate_qemuRunning"><path d="M378,1281.12 C378,1295.41 378,1332.03 378,1352.76 " fill="none" id="terminate-to-qemuRunning" style="stroke:#181818;stroke-width:1.0;"/><polygon fill="#181818" points="378,1358.76,382,1349.76,378,1353.76,374,1349.76,378,1358.76" style="stroke:#181818;stroke-width:1.0;"/></g><!--link qemuRunning to qemuPowerdown--><g id="link_qemuRunning_qemuPowerdown"><path d="M371.49,1376.86 C351.72,1390.63 296.2932,1429.2304 257.1332,1456.5104 " fill="none" id="qemuRunning-to-qemuPowerdown" style="stroke:#181818;stroke-width:1.0;"/><polygon fill="#181818" points="252.21,1459.94,261.8812,1458.0777,256.3126,1457.082,257.3083,1451.5134,252.21,1459.94" style="stroke:#181818;stroke-width:1.0;"/><text fill="#000000" font-family="sans-serif" font-size="13" lengthAdjust="spacing" textLength="137" x="317" y="1426.3869">[qemu monitor open]</text></g><!--link qemuRunning to terminateProcesses--><g id="link_qemuRunning_terminateProcesses"><path d="M388.14,1373.74 C406.82,1376.94 446.27,1386.68 463,1413.32 C500.64,1473.27 502.22,1513.66 463,1572.59 C454.66,1585.12 448.0227,1591.8143 434.8327,1599.2143 " fill="none" id="qemuRunning-to-terminateProcesses" style="stroke:#181818;stroke-width:1.0;"/><polygon fill="#181818" points="429.6,1602.15,439.4063,1601.2349,433.9606,1599.7036,435.492,1594.2579,429.6,1602.15" style="stroke:#181818;stroke-width:1.0;"/><text fill="#000000" font-family="sans-serif" font-size="13" lengthAdjust="spacing" textLength="36" x="492" y="1490.0269">[else]</text></g><!--link qemuPowerdown to terminateProcesses--><g id="link_qemuPowerdown_terminateProcesses"><path d="M119.27,1511.07 C81.6,1525.35 52.23,1545.84 74,1572.59 C94.37,1597.62 164.2586,1610.7503 228.8086,1618.1103 " fill="none" id="qemuPowerdown-to-terminateProcesses" style="stroke:#181818;stroke-width:1.0;"/><polygon fill="#181818" points="234.77,1618.79,226.2811,1613.7962,229.8022,1618.2236,225.3748,1621.7447,234.77,1618.79" style="stroke:#181818;stroke-width:1.0;"/><text fill="#000000" font-family="sans-serif" font-size="13" lengthAdjust="spacing" textLength="215" x="75" y="1553.6569">Closed[for monitor]/resume Stop,</text><text fill="#000000" font-family="sans-serif" font-size="13" lengthAdjust="spacing" textLength="81" x="142" y="1568.7897">cancel Timer</text></g><!--link qemuPowerdown to terminateProcesses--><g id="link_qemuPowerdown_terminateProcesses"><path d="M260.87,1510.85 C273.04,1519.12 285.5,1529.2 295,1540.59 C310.22,1558.85 318.7821,1578.3282 325.0221,1596.7182 " fill="none" id="qemuPowerdown-to-terminateProcesses-1" style="stroke:#181818;stroke-width:1.0;"/><polygon fill="#181818" points="326.95,1602.4,327.846,1592.592,325.3434,1597.6651,320.2702,1595.1626,326.95,1602.4" style="stroke:#181818;stroke-width:1.0;"/><text fill="#000000" font-family="sans-serif" font-size="13" lengthAdjust="spacing" textLength="139" x="315" y="1561.1569">Timeout/resume Stop</text></g><!--link terminateProcesses to terminated--><g id="link_terminateProcesses_terminated"><path d="M334,1653.02 C334,1677.3 334,1706.73 334,1719.65 " fill="none" id="terminateProcesses-to-terminated" style="stroke:#181818;stroke-width:1.0;"/><polygon fill="#181818" points="334,1725.65,338,1716.65,334,1720.65,330,1716.65,334,1725.65" style="stroke:#181818;stroke-width:1.0;"/></g><!--link Running to terminate--><g id="link_Running_terminate"><path d="M349.47,1180.65 C340.55,1194.21 333.29,1211.51 339,1227.32 C345.55,1245.48 357.9107,1257.705 367.1607,1265.495 " fill="none" id="Running-to-terminate" style="stroke:#181818;stroke-width:1.0;"/><polygon fill="#181818" points="371.75,1269.36,367.4426,1260.503,367.9256,1266.1392,362.2893,1266.6221,371.75,1269.36" style="stroke:#181818;stroke-width:1.0;"/><text fill="#000000" font-family="sans-serif" font-size="13" lengthAdjust="spacing" textLength="30" x="340" y="1223.3869">Stop</text></g><!--link Running to terminate--><g id="link_Running_terminate"><path d="M372.5,1180.77 C373.38,1190.02 374.33,1200.65 375,1210.32 C376.53,1232.3 377.2951,1252.5732 377.6451,1263.3432 " fill="none" id="Running-to-terminate-1" style="stroke:#181818;stroke-width:1.0;"/><polygon fill="#181818" points="377.84,1269.34,381.5456,1260.2148,377.6776,1264.3426,373.5498,1260.4747,377.84,1269.34" style="stroke:#181818;stroke-width:1.0;"/><text fill="#000000" font-family="sans-serif" font-size="13" lengthAdjust="spacing" textLength="190" x="376" y="1223.3869">ProcessExited[process qemu]</text></g><!--link error to terminate--><g id="link_error_terminate"><path d="M264.03,1057.59 C268.55,1079.8 288.21,1167.38 328,1227.32 C340.25,1245.79 356.2472,1258.7015 366.7272,1266.3215 " fill="none" id="error-to-terminate" style="stroke:#181818;stroke-width:1.0;"/><polygon fill="#181818" points="371.58,1269.85,366.6531,1261.3221,367.536,1266.9096,361.9485,1267.7925,371.58,1269.85" style="stroke:#181818;stroke-width:1.0;"/></g><!--link StartingProcess to terminate--><g id="link_StartingProcess_terminate"><path d="M694.0157,276.4383 C695.1267,278.7062 696.2498,281.0742 697.3688,283.5287 C706.32,303.165 715,328.34 715,352.13 C715,352.13 715,352.13 715,1156.32 C715,1229.78 432.1243,1267.6213 389.2443,1272.9413 " fill="none" id="StartingProcess-to-terminate" style="stroke:#181818;stroke-width:1.0;"/><polygon fill="#181818" points="383.29,1273.68,392.714,1276.5415,388.252,1273.0644,391.729,1268.6023,383.29,1273.68" style="stroke:#181818;stroke-width:1.0;"/><text fill="#000000" font-family="sans-serif" font-size="13" lengthAdjust="spacing" textLength="89" x="716" y="744.8569">ProcessExited</text></g><!--link stopped to *end*Stopped--><g id="link_stopped_*end*Stopped"><path d="M334,1834.33 C334,1848.69 334,1885.97 334,1906.09 " fill="none" id="stopped-to-*end*Stopped" style="stroke:#181818;stroke-width:1.0;"/><polygon fill="#181818" points="334,1912.09,338,1903.09,334,1907.09,330,1903.09,334,1912.09" style="stroke:#181818;stroke-width:1.0;"/></g><!--link terminated to stopped--><g id="link_terminated_stopped"><path d="M334,1737.43 C334,1753.77 334,1800.72 334,1816.87 " fill="none" id="terminated-to-stopped" style="stroke:#181818;stroke-width:1.0;"/><polygon fill="#181818" points="334,1822.87,338,1813.87,334,1817.87,330,1813.87,334,1822.87" style="stroke:#181818;stroke-width:1.0;"/></g><!--SRC=[ZLLDRzim3BtdLmWvjKMBteqYm12qmmOKIzVkvEMWsMogrPOyILws5Vll8_LboKssvP18udiKHV8nzTcMNLois3ifhE2T-2NaRb7isCnQnTrQoKUn6pMtGidB9ko0VHob1Fql9_UMQtjfw3in5Wpt5jZI6Obsij6g0MF0d2uPDomQmZ5x8H9zSYBx1lteuBGex1y6aAnN68dI3X7M1MYTdd9tkt6eFHVsHkbaQ8_Xhsy_EKBAHWuqO-E2lhg27y9kb91sjSe1eBNIXymvQD0mO2pFY7l4dz836TyZ4urVyQSqBjy2ffbMJQV6zaBWqvde-Gvyp7H8HVAST0-rHx9LhCx8BRSSWUgxQA7TXhlsTkWTAGPJiHlHmVg9onsqjRSRrJo3POq6Z2THyo8wd0lChGu4vSuneD60N-SHL0oarJz3XsKkqbDcCOQMkiRSn_fch_RETiSIU22woNCDdO5jNibK9W9EJUg_QLz6Fo5evKYXRrcPstWwoowBAWdswFrHOC-I9EuT7ljOGaDgBj3klbSAgDYw4-WcaF1oxCP8sSuSh7nh8yUZhsbN4ZpZm3LPg7VziEO3_o8wd2HWZb1ymyPjvLWpuORoJfZiaeIzIrcVPfjhEo_ZgaIoauuRox0GRGVwrFj28bP1zJsUBjXlAaCv5KEVKDE4aKWXBjAe801DHpULutXy0DqBoTs0VCcLOuC1Q8RGYmxC6EgWu15HpPCI3PI8vAKzFgcM6xK7tQgzB8TjEYx0RwX6D2VScw9_x3F7I_UbMH_RTNfFr4dAHHH3V4e4f02gscabjg32BjyUfhs-lugAdGYJtwZCqQ3B5ekcXdDcQ3cad5ZbIEVCwzUA7lHSubC6ZmI10bDcfgjB3MRimT_wMJPSDj2nXyd__tacWXfjxcsMyGGkVSGkFfY_AZWwOYm6R1sxWGB6JFk_leAnUFLl_pU7apmeY06Rjv262OTpOKICjz85zTasF38JWjEz1_q1]--></g></svg>