<?xml version="1.0" encoding="us-ascii" standalone="no"?><svg xmlns="http://www.w3.org/2000/svg" xmlns:xlink="http://www.w3.org/1999/xlink" contentStyleType="text/css" height="1956px" preserveAspectRatio="none" style="width:869px;height:1956px;background:#FFFFFF;" version="1.1" viewBox="0 0 869 1956" width="869px" zoomAndPan="magnify"><defs/><g><!--cluster StartingProcess--><g id="cluster_StartingProcess"><path d="M195.5,200 L721.5,200 A12.5,12.5 0 0 1 734,212.5 L734,221.2969 L183,221.2969 L183,212.5 A12.5,12.5 0 0 1 195.5,200 " fill="#F1F1F1" style="stroke:#F1F1F1;stroke-width:1.0;"/><rect fill="none" height="851.32" rx="12.5" ry="12.5" style="stroke:#181818;stroke-width:0.5;" width="551" x="183" y="200"/><line style="stroke:#181818;stroke-width:0.5;" x1="183" x2="734" y1="221.2969" y2="221.2969"/><text fill="#000000" font-family="sans-serif" font-size="14" lengthAdjust="spacing" textLength="140" x="388.5" y="217.9951">Starting (Processes)</text></g><!--cluster Terminating--><g id="cluster_Terminating"><path d="M19.5,1275.32 L522.5,1275.32 A12.5,12.5 0 0 1 535,1287.82 L535,1296.6169 L7,1296.6169 L7,1287.82 A12.5,12.5 0 0 1 19.5,1275.32 " fill="#F1F1F1" style="stroke:#F1F1F1;stroke-width:1.0;"/><rect fill="none" height="456.27" rx="12.5" ry="12.5" style="stroke:#181818;stroke-width:0.5;" width="528" x="7" y="1275.32"/><line style="stroke:#181818;stroke-width:0.5;" x1="7" x2="535" y1="1296.6169" y2="1296.6169"/><text fill="#000000" font-family="sans-serif" font-size="14" lengthAdjust="spacing" textLength="82" x="230" y="1293.3151">Terminating</text></g><!--cluster Stopped--><g id="cluster_Stopped"><path d="M301.5,1828.59 L367.5,1828.59 A12.5,12.5 0 0 1 380,1841.09 L380,1849.8869 L289,1849.8869 L289,1841.09 A12.5,12.5 0 0 1 301.5,1828.59 " fill="#F1F1F1" style="stroke:#F1F1F1;stroke-width:1.0;"/><rect fill="none" height="122" rx="12.5" ry="12.5" style="stroke:#181818;stroke-width:0.5;" width="91" x="289" y="1828.59"/><line style="stroke:#181818;stroke-width:0.5;" x1="289" x2="380" y1="1849.8869" y2="1849.8869"/><text fill="#000000" font-family="sans-serif" font-size="14" lengthAdjust="spacing" textLength="59" x="305" y="1846.5851">Stopped</text></g><g id="StartingProcess.qemu"><rect fill="#F1F1F1" height="50.2656" rx="12.5" ry="12.5" style="stroke:#181818;stroke-width:0.5;" width="125" x="273.5" y="524.26"/><line style="stroke:#181818;stroke-width:0.5;" x1="273.5" x2="398.5" y1="550.5569" y2="550.5569"/><text fill="#000000" font-family="sans-serif" font-size="14" lengthAdjust="spacing" textLength="76" x="298" y="542.2551">Start qemu</text><text fill="#000000" font-family="sans-serif" font-size="12" lengthAdjust="spacing" textLength="105" x="278.5" y="566.6955">entry/start qemu</text></g><g id="StartingProcess.monitor"><rect fill="#F1F1F1" height="50.2656" rx="12.5" ry="12.5" style="stroke:#181818;stroke-width:0.5;" width="227" x="222.5" y="651.53"/><line style="stroke:#181818;stroke-width:0.5;" x1="222.5" x2="449.5" y1="677.8269" y2="677.8269"/><text fill="#000000" font-family="sans-serif" font-size="14" lengthAdjust="spacing" textLength="95" x="288.5" y="669.5251">Open monitor</text><text fill="#000000" font-family="sans-serif" font-size="12" lengthAdjust="spacing" textLength="207" x="227.5" y="693.9655">entry/fire OpenSocketConnection</text></g><g id="StartingProcess.waitForConfigured"><rect fill="#F1F1F1" height="50.2656" rx="12.5" ry="12.5" style="stroke:#181818;stroke-width:0.5;" width="180" x="351" y="778.79"/><line style="stroke:#181818;stroke-width:0.5;" x1="351" x2="531" y1="805.0869" y2="805.0869"/><text fill="#000000" font-family="sans-serif" font-size="14" lengthAdjust="spacing" textLength="103" x="389.5" y="796.7851">Configure QMP</text><text fill="#000000" font-family="sans-serif" font-size="12" lengthAdjust="spacing" textLength="160" x="356" y="821.2255">entry/fire QmpCapabilities</text></g><g id="StartingProcess.configure"><rect fill="#F1F1F1" height="50.2656" rx="12.5" ry="12.5" style="stroke:#181818;stroke-width:0.5;" width="176" x="341" y="906.06"/><line style="stroke:#181818;stroke-width:0.5;" x1="341" x2="517" y1="932.3569" y2="932.3569"/><text fill="#000000" font-family="sans-serif" font-size="14" lengthAdjust="spacing" textLength="113" x="372.5" y="924.0551">Configure QEMU</text><text fill="#000000" font-family="sans-serif" font-size="12" lengthAdjust="spacing" textLength="156" x="346" y="948.4955">entry/fire ConfigureQemu</text></g><text fill="#000000" font-family="sans-serif" font-size="14" lengthAdjust="spacing" textLength="58" x="381.5" y="1070.3151">success</text><ellipse cx="410.5" cy="1051.32" fill="#F1F1F1" rx="6" ry="6" style="stroke:#181818;stroke-width:1.5;"/><line style="stroke:#181818;stroke-width:1.5;" x1="414.8891" x2="407.1109" y1="1055.7091" y2="1047.9309"/><line style="stroke:#181818;stroke-width:1.5;" x1="414.8891" x2="407.1109" y1="1047.9309" y2="1055.7091"/><text fill="#000000" font-family="sans-serif" font-size="14" lengthAdjust="spacing" textLength="33" x="272.5" y="1070.3151">error</text><ellipse cx="289" cy="1051.32" fill="#F1F1F1" rx="6" ry="6" style="stroke:#181818;stroke-width:1.5;"/><line style="stroke:#181818;stroke-width:1.5;" x1="293.3891" x2="285.6109" y1="1055.7091" y2="1047.9309"/><line style="stroke:#181818;stroke-width:1.5;" x1="293.3891" x2="285.6109" y1="1047.9309" y2="1055.7091"/><rect fill="#555555" height="8" style="stroke:none;stroke-width:1.0;" width="80" x="375" y="243"/><rect fill="#555555" height="8" style="stroke:none;stroke-width:1.0;" width="80" x="296" y="455.26"/><g id="StartingProcess.cloudInit"><rect fill="#F1F1F1" height="50.2656" rx="12.5" ry="12.5" style="stroke:#181818;stroke-width:0.5;" width="217" x="315.5" y="328"/><line style="stroke:#181818;stroke-width:0.5;" x1="315.5" x2="532.5" y1="354.2969" y2="354.2969"/><text fill="#000000" font-family="sans-serif" font-size="14" lengthAdjust="spacing" textLength="178" x="335" y="345.9951">Generate cloud-init image</text><text fill="#000000" font-family="sans-serif" font-size="12" lengthAdjust="spacing" textLength="197" x="320.5" y="370.4355">entry/generate cloud-init image</text></g><g id="StartingProcess.swtpm"><rect fill="#F1F1F1" height="50.2656" rx="12.5" ry="12.5" style="stroke:#181818;stroke-width:0.5;" width="130" x="568" y="328"/><line style="stroke:#181818;stroke-width:0.5;" x1="568" x2="698" y1="354.2969" y2="354.2969"/><text fill="#000000" font-family="sans-serif" font-size="14" lengthAdjust="spacing" textLength="82" x="592" y="345.9951">Start swtpm</text><text fill="#000000" font-family="sans-serif" font-size="12" lengthAdjust="spacing" textLength="110" x="573" y="370.4355">entry/start swtpm</text></g><text fill="#000000" font-family="sans-serif" font-size="14" lengthAdjust="spacing" textLength="66" x="375.5" y="1254.0182">terminate</text><ellipse cx="408.5" cy="1275.32" fill="#F1F1F1" rx="6" ry="6" style="stroke:#181818;stroke-width:1.5;"/><g id="elem_qemuRunning"><polygon fill="#F1F1F1" points="408,1359.32,420,1371.32,408,1383.32,396,1371.32,408,1359.32" style="stroke:#181818;stroke-width:0.5;"/></g><text fill="#000000" font-family="sans-serif" font-size="14" lengthAdjust="spacing" textLength="75" x="297" y="1750.5851">terminated</text><ellipse cx="334.5" cy="1731.59" fill="#F1F1F1" rx="6" ry="6" style="stroke:#181818;stroke-width:1.5;"/><line style="stroke:#181818;stroke-width:1.5;" x1="338.8891" x2="331.1109" y1="1735.9791" y2="1728.2009"/><line style="stroke:#181818;stroke-width:1.5;" x1="338.8891" x2="331.1109" y1="1728.2009" y2="1735.9791"/><g id="Terminating.qemuPowerdown"><rect fill="#F1F1F1" height="50.2656" rx="12.5" ry="12.5" style="stroke:#181818;stroke-width:0.5;" width="387" x="23.5" y="1460.32"/><line style="stroke:#181818;stroke-width:0.5;" x1="23.5" x2="410.5" y1="1486.6169" y2="1486.6169"/><text fill="#000000" font-family="sans-serif" font-size="14" lengthAdjust="spacing" textLength="125" x="154.5" y="1478.3151">Powerdown qemu</text><text fill="#000000" font-family="sans-serif" font-size="12" lengthAdjust="spacing" textLength="367" x="28.5" y="1502.7555">entry/suspend Stop, send powerdown to qemu, start timer</text></g><g id="Terminating.terminateProcesses"><rect fill="#F1F1F1" height="50" rx="12.5" ry="12.5" style="stroke:#181818;stroke-width:0.5;" width="198" x="235" y="1602.59"/><line style="stroke:#181818;stroke-width:0.5;" x1="235" x2="433" y1="1628.8869" y2="1628.8869"/><text fill="#000000" font-family="sans-serif" font-size="14" lengthAdjust="spacing" textLength="178" x="245" y="1620.5851">Await process termination</text></g><text fill="#000000" font-family="sans-serif" font-size="14" lengthAdjust="spacing" textLength="58" x="305.5" y="1807.2882">stopped</text><ellipse cx="334.5" cy="1828.59" fill="#F1F1F1" rx="6" ry="6" style="stroke:#181818;stroke-width:1.5;"/><ellipse cx="334" cy="1923.59" fill="none" rx="11" ry="11" style="stroke:#222222;stroke-width:1.0;"/><ellipse cx="334" cy="1923.59" fill="#222222" rx="6" ry="6" style="stroke:#222222;stroke-width:1.0;"/><ellipse cx="415" cy="16" fill="#222222" rx="10" ry="10" style="stroke:#222222;stroke-width:1.0;"/><g id="Initializing"><rect fill="#F1F1F1" height="50" rx="12.5" ry="12.5" style="stroke:#181818;stroke-width:0.5;" width="86" x="372" y="87"/><line style="stroke:#181818;stroke-width:0.5;" x1="372" x2="458" y1="113.2969" y2="113.2969"/><text fill="#000000" font-family="sans-serif" font-size="14" lengthAdjust="spacing" textLength="66" x="382" y="104.9951">Initializing</text></g><g id="Running"><rect fill="#F1F1F1" height="50" rx="12.5" ry="12.5" style="stroke:#181818;stroke-width:0.5;" width="78" x="371" y="1130.32"/><line style="stroke:#181818;stroke-width:0.5;" x1="371" x2="449" y1="1156.6169" y2="1156.6169"/><text fill="#000000" font-family="sans-serif" font-size="14" lengthAdjust="spacing" textLength="58" x="381" y="1148.3151">Running</text></g><!--link *start* to Initializing--><g id="link_*start*_Initializing"><path d="M415,26.35 C415,40.28 415,60.95 415,80.64 " fill="none" id="*start*-to-Initializing" style="stroke:#181818;stroke-width:1.0;"/><polygon fill="#181818" points="415,86.64,419,77.64,415,81.64,411,77.64,415,86.64" style="stroke:#181818;stroke-width:1.0;"/></g><!--link Initializing to Initializing--><g id="link_Initializing_Initializing"><path d="M458.31,106.86 C477,106.43 493,108.15 493,112 C493,115.84 482.9985,117.6948 464.3085,117.2748 " fill="none" id="Initializing-to-Initializing" style="stroke:#181818;stroke-width:1.0;"/><polygon fill="#181818" points="458.31,117.14,467.2179,121.3412,463.3087,117.2523,467.3976,113.3432,458.31,117.14" style="stroke:#181818;stroke-width:1.0;"/><text fill="#000000" font-family="sans-serif" font-size="13" lengthAdjust="spacing" textLength="230" x="499" y="116.5669">InitialConfiguration/configure Runner</text></g><!--link Initializing to Initializing--><g id="link_Initializing_Initializing"><path d="M458.19,105.68 C548.17,98.6 735,100.71 735,112 C735,123.28 554.1515,125.8607 464.1715,118.7807 " fill="none" id="Initializing-to-Initializing-1" style="stroke:#181818;stroke-width:1.0;"/><polygon fill="#181818" points="458.19,118.31,466.8485,123.0037,463.1746,118.7022,467.476,115.0283,458.19,118.31" style="stroke:#181818;stroke-width:1.0;"/><text fill="#000000" font-family="sans-serif" font-size="13" lengthAdjust="spacing" textLength="115" x="741" y="116.5669">Start/start Runner</text></g><!--link prepFork to cloudInit--><g id="link_prepFork_cloudInit"><path d="M414.58,251.46 C413.88,257.46 412.49,270.19 412,281 C411.66,288.54 411.18,290.49 412,298 C413.07,307.76 413.8126,312.4902 415.9826,321.6902 " fill="none" id="prepFork-to-cloudInit" style="stroke:#181818;stroke-width:1.0;"/><polygon fill="#181818" points="417.36,327.53,419.187,317.8521,416.2122,322.6635,411.4007,319.6887,417.36,327.53" style="stroke:#181818;stroke-width:1.0;"/><text fill="#000000" font-family="sans-serif" font-size="13" lengthAdjust="spacing" textLength="160" x="413" y="294.0669">[cloud-init data provided]</text></g><!--link swtpm to prepJoin--><g id="link_swtpm_prepJoin"><path d="M567.82,376.98 C494.06,402.85 385.3922,440.9452 351.4722,452.8352 " fill="none" id="swtpm-to-prepJoin" style="stroke:#181818;stroke-width:1.0;"/><polygon fill="#181818" points="345.81,454.82,355.6265,455.6176,350.5285,453.166,352.9801,448.068,345.81,454.82" style="stroke:#181818;stroke-width:1.0;"/><text fill="#000000" font-family="sans-serif" font-size="13" lengthAdjust="spacing" textLength="229" x="476.59" y="421.3269">FileChanged[swtpm socket created]</text></g><!--link prepFork to swtpm--><g id="link_prepFork_swtpm"><path d="M444.41,251.45 C485.11,256.66 556.05,267.35 578,281 C596.16,292.29 607.5353,306.7357 617.0653,322.4957 " fill="none" id="prepFork-to-swtpm" style="stroke:#181818;stroke-width:1.0;"/><polygon fill="#181818" points="620.17,327.63,618.9358,317.8588,617.5828,323.3514,612.0901,321.9984,620.17,327.63" style="stroke:#181818;stroke-width:1.0;"/><text fill="#000000" font-family="sans-serif" font-size="13" lengthAdjust="spacing" textLength="79" x="597.75" y="294.0669">[use swtpm]</text></g><!--link cloudInit to prepJoin--><g id="link_cloudInit_prepJoin"><path d="M363.01,378.47 C351.02,386.16 340,395.96 333,408.26 C324.23,423.68 329.2059,440.6723 332.4559,449.2123 " fill="none" id="cloudInit-to-prepJoin" style="stroke:#181818;stroke-width:1.0;"/><polygon fill="#181818" points="334.59,454.82,335.1273,444.9858,332.8116,450.147,327.6505,447.8312,334.59,454.82" style="stroke:#181818;stroke-width:1.0;"/><text fill="#000000" font-family="sans-serif" font-size="13" lengthAdjust="spacing" textLength="89" x="334" y="421.3269">ProcessExited</text></g><!--link prepFork to prepJoin--><g id="link_prepFork_prepJoin"><path d="M395.1,251.47 C360.44,258.7 289.86,278.99 260,328 C229.62,377.86 304.9556,436.2154 326.1356,451.3254 " fill="none" id="prepFork-to-prepJoin" style="stroke:#181818;stroke-width:1.0;"/><polygon fill="#181818" points="331.02,454.81,326.0164,446.3268,326.9496,451.9062,321.3703,452.8394,331.02,454.81" style="stroke:#181818;stroke-width:1.0;"/><text fill="#000000" font-family="sans-serif" font-size="13" lengthAdjust="spacing" textLength="36" x="261" y="357.6969">[else]</text></g><!--link prepJoin to qemu--><g id="link_prepJoin_qemu"><path d="M336,463.61 C336,473.36 336,496.38 336,517.77 " fill="none" id="prepJoin-to-qemu" style="stroke:#181818;stroke-width:1.0;"/><polygon fill="#181818" points="336,523.77,340,514.77,336,518.77,332,514.77,336,523.77" style="stroke:#181818;stroke-width:1.0;"/></g><!--link qemu to monitor--><g id="link_qemu_monitor"><path d="M336,574.84 C336,596.92 336,623.22 336,645.27 " fill="none" id="qemu-to-monitor" style="stroke:#181818;stroke-width:1.0;"/><polygon fill="#181818" points="336,651.27,340,642.27,336,646.27,332,642.27,336,651.27" style="stroke:#181818;stroke-width:1.0;"/><text fill="#000000" font-family="sans-serif" font-size="13" lengthAdjust="spacing" textLength="237" x="337" y="617.5969">FileChanged[monitor socket created]</text></g><!--link monitor to waitForConfigured--><g id="link_monitor_waitForConfigured"><path d="M356.49,702.11 C375,724.18 398.2158,751.8816 416.7058,773.9416 " fill="none" id="monitor-to-waitForConfigured" style="stroke:#181818;stroke-width:1.0;"/><polygon fill="#181818" points="420.56,778.54,417.8443,769.073,417.3482,774.708,411.7131,774.2119,420.56,778.54" style="stroke:#181818;stroke-width:1.0;"/><text fill="#000000" font-family="sans-serif" font-size="13" lengthAdjust="spacing" textLength="186" x="395.79" y="744.8569">ClientConnected[for monitor]</text></g><!--link monitor to error--><g id="link_monitor_error"><path d="M323.6,702.09 C307.06,736.19 278.62,800.48 268,859.06 C254.77,932.03 278.5082,1016.5476 285.5182,1039.2276 " fill="none" id="monitor-to-error" style="stroke:#181818;stroke-width:1.0;"/><polygon fill="#181818" points="287.29,1044.96,288.4539,1035.1802,285.8135,1040.183,280.8107,1037.5426,287.29,1044.96" style="stroke:#181818;stroke-width:1.0;"/><text fill="#000000" font-family="sans-serif" font-size="13" lengthAdjust="spacing" textLength="165" x="269" y="872.1269">ConnectError[for monitor]</text></g><!--link waitForConfigured to configure--><g id="link_waitForConfigured_configure"><path d="M443.54,829.38 C444.51,843.14 444.96,860.62 443,876.06 C441.75,885.88 440.8567,890.6836 438.3367,899.8736 " fill="none" id="waitForConfigured-to-configure" style="stroke:#181818;stroke-width:1.0;"/><polygon fill="#181818" points="436.75,905.66,442.9876,898.0382,438.0722,900.838,435.2724,895.9226,436.75,905.66" style="stroke:#181818;stroke-width:1.0;"/><text fill="#000000" font-family="sans-serif" font-size="13" lengthAdjust="spacing" textLength="100" x="445.21" y="872.1269">QmpConfigured</text></g><!--link configure to success--><g id="link_configure_success"><path d="M417.84,956.74 C414.27,965.84 410.78,976.36 409,986.32 C405.09,1008.21 407.3367,1029.0224 408.8867,1039.6824 " fill="none" id="configure-to-success" style="stroke:#181818;stroke-width:1.0;"/><polygon fill="#181818" points="409.75,1045.62,412.4134,1036.1381,409.0305,1040.672,404.4966,1037.2892,409.75,1045.62" style="stroke:#181818;stroke-width:1.0;"/><text fill="#000000" font-family="sans-serif" font-size="13" lengthAdjust="spacing" textLength="314" x="410" y="999.3869">ConfigureQemu (last handler)/fire cont command</text></g><!--link Initializing to prepFork--><g id="link_Initializing_prepFork"><path d="M415,137.39 C415,170.69 415,221.91 415,236.52 " fill="none" id="Initializing-to-prepFork" style="stroke:#181818;stroke-width:1.0;"/><polygon fill="#181818" points="415,242.52,419,233.52,415,237.52,411,233.52,415,242.52" style="stroke:#181818;stroke-width:1.0;"/><text fill="#000000" font-family="sans-serif" font-size="13" lengthAdjust="spacing" textLength="48" x="416" y="180.0669">Started</text></g><!--link success to Running--><g id="link_success_Running"><path d="M410.48,1057.24 C410.41,1070.14 410.2696,1099.5901 410.1496,1123.8801 " fill="none" id="success-to-Running" style="stroke:#181818;stroke-width:1.0;"/><polygon fill="#181818" points="410.12,1129.88,414.1644,1120.8999,410.1447,1124.8801,406.1645,1120.8603,410.12,1129.88" style="stroke:#181818;stroke-width:1.0;"/></g><!--link terminate to qemuRunning--><g id="link_terminate_qemuRunning"><path d="M408.47,1281.12 C408.4,1295.41 408.2018,1332.0301 408.0918,1352.7601 " fill="none" id="terminate-to-qemuRunning" style="stroke:#181818;stroke-width:1.0;"/><polygon fill="#181818" points="408.06,1358.76,412.1077,1349.7814,408.0865,1353.7601,404.1078,1349.7389,408.06,1358.76" style="stroke:#181818;stroke-width:1.0;"/></g><!--link qemuRunning to qemuPowerdown--><g id="link_qemuRunning_qemuPowerdown"><path d="M400.48,1376.28 C386.89,1383.45 357.4,1399.19 333,1413.32 C307.04,1428.37 283.3828,1442.8178 261.0028,1456.7578 " fill="none" id="qemuRunning-to-qemuPowerdown" style="stroke:#181818;stroke-width:1.0;"/><polygon fill="#181818" points="255.91,1459.93,265.6641,1458.5669,260.154,1457.2865,261.4345,1451.7764,255.91,1459.93" style="stroke:#181818;stroke-width:1.0;"/><text fill="#000000" font-family="sans-serif" font-size="13" lengthAdjust="spacing" textLength="137" x="334" y="1426.3869">[qemu monitor open]</text></g><!--link qemuRunning to terminateProcesses--><g id="link_qemuRunning_terminateProcesses"><path d="M417.15,1374.69 C432.56,1379.22 463.26,1390.76 476,1413.32 C496.93,1450.39 620.9,1357.27 463,1572.59 C453.81,1585.12 446.437,1591.9232 432.627,1599.3332 " fill="none" id="qemuRunning-to-terminateProcesses" style="stroke:#181818;stroke-width:1.0;"/><polygon fill="#181818" points="427.34,1602.17,437.1617,1601.4394,431.7458,1599.806,433.3793,1594.3901,427.34,1602.17" style="stroke:#181818;stroke-width:1.0;"/><text fill="#000000" font-family="sans-serif" font-size="13" lengthAdjust="spacing" textLength="36" x="536.26" y="1490.0269">[else]</text></g><!--link qemuPowerdown to terminateProcesses--><g id="link_qemuPowerdown_terminateProcesses"><path d="M119.27,1511.07 C81.6,1525.35 52.23,1545.84 74,1572.59 C94.37,1597.62 164.2586,1610.7503 228.8086,1618.1103 " fill="none" id="qemuPowerdown-to-terminateProcesses" style="stroke:#181818;stroke-width:1.0;"/><polygon fill="#181818" points="234.77,1618.79,226.2811,1613.7962,229.8022,1618.2236,225.3748,1621.7447,234.77,1618.79" style="stroke:#181818;stroke-width:1.0;"/><text fill="#000000" font-family="sans-serif" font-size="13" lengthAdjust="spacing" textLength="215" x="75" y="1553.6569">Closed[for monitor]/resume Stop,</text><text fill="#000000" font-family="sans-serif" font-size="13" lengthAdjust="spacing" textLength="81" x="142" y="1568.7897">cancel Timer</text></g><!--link qemuPowerdown to terminateProcesses--><g id="link_qemuPowerdown_terminateProcesses"><path d="M260.87,1510.85 C273.04,1519.12 285.5,1529.2 295,1540.59 C310.22,1558.85 318.7821,1578.3282 325.0221,1596.7182 " fill="none" id="qemuPowerdown-to-terminateProcesses-1" style="stroke:#181818;stroke-width:1.0;"/><polygon fill="#181818" points="326.95,1602.4,327.846,1592.592,325.3434,1597.6651,320.2702,1595.1626,326.95,1602.4" style="stroke:#181818;stroke-width:1.0;"/><text fill="#000000" font-family="sans-serif" font-size="13" lengthAdjust="spacing" textLength="139" x="315.16" y="1561.1569">Timeout/resume Stop</text></g><!--link terminateProcesses to terminated--><g id="link_terminateProcesses_terminated"><path d="M334.12,1653.02 C334.24,1677.3 334.3775,1706.7301 334.4475,1719.6501 " fill="none" id="terminateProcesses-to-terminated" style="stroke:#181818;stroke-width:1.0;"/><polygon fill="#181818" points="334.48,1725.65,338.4312,1716.6285,334.4529,1720.6501,330.4313,1716.6718,334.48,1725.65" style="stroke:#181818;stroke-width:1.0;"/></g><!--link Running to terminate--><g id="link_Running_terminate"><path d="M386.2,1180.69 C379.27,1189.34 372.61,1199.61 369,1210.32 C360.59,1235.32 385.2387,1257.1218 398.0487,1266.7218 " fill="none" id="Running-to-terminate" style="stroke:#181818;stroke-width:1.0;"/><polygon fill="#181818" points="402.85,1270.32,398.0468,1261.7218,398.8489,1267.3215,393.2492,1268.1236,402.85,1270.32" style="stroke:#181818;stroke-width:1.0;"/><text fill="#000000" font-family="sans-serif" font-size="13" lengthAdjust="spacing" textLength="30" x="370" y="1223.3869">Stop</text></g><!--link Running to terminate--><g id="link_Running_terminate"><path d="M409.69,1180.77 C409.33,1209.4 408.8273,1248.7705 408.6373,1263.5205 " fill="none" id="Running-to-terminate-1" style="stroke:#181818;stroke-width:1.0;"/><polygon fill="#181818" points="408.56,1269.52,412.6756,1260.5723,408.6244,1264.5204,404.6763,1260.4692,408.56,1269.52" style="stroke:#181818;stroke-width:1.0;"/><text fill="#000000" font-family="sans-serif" font-size="13" lengthAdjust="spacing" textLength="190" x="410.29" y="1223.3869">ProcessExited[process qemu]</text></g><!--link error to terminate--><g id="link_error_terminate"><path d="M290.27,1057.57 C295.8,1079.69 319.31,1166.97 360,1227.32 C372.32,1245.6 387.937,1258.7312 397.897,1266.3612 " fill="none" id="error-to-terminate" style="stroke:#181818;stroke-width:1.0;"/><polygon fill="#181818" points="402.66,1270.01,397.948,1261.3615,398.6908,1266.9693,393.0829,1267.7122,402.66,1270.01" style="stroke:#181818;stroke-width:1.0;"/></g><!--link StartingProcess to terminate--><g id="link_StartingProcess_terminate"><path d="M734.0406,282.9884 C734.5444,284.1509 735.0477,285.3332 735.5488,286.5337 C743.565,305.7425 751,329.625 751,352.13 C751,352.13 751,352.13 751,1156.32 C751,1230.54 465.8876,1267.4876 420.3976,1272.9276 " fill="none" id="StartingProcess-to-terminate" style="stroke:#181818;stroke-width:1.0;"/><polygon fill="#181818" points="414.44,1273.64,423.8513,1276.543,419.4046,1273.0463,422.9014,1268.5996,414.44,1273.64" style="stroke:#181818;stroke-width:1.0;"/><text fill="#000000" font-family="sans-serif" font-size="13" lengthAdjust="spacing" textLength="89" x="752" y="744.8569">ProcessExited</text></g><!--link stopped to *end*Stopped--><g id="link_stopped_*end*Stopped"><path d="M334.47,1834.33 C334.4,1848.69 334.1898,1885.9701 334.0898,1906.0901 " fill="none" id="stopped-to-*end*Stopped" style="stroke:#181818;stroke-width:1.0;"/><polygon fill="#181818" points="334.06,1912.09,338.1047,1903.11,334.0849,1907.0901,330.1048,1903.0702,334.06,1912.09" style="stroke:#181818;stroke-width:1.0;"/></g><!--link terminated to stopped--><g id="link_terminated_stopped"><path d="M334.5,1737.43 C334.5,1753.77 334.5,1800.72 334.5,1816.87 " fill="none" id="terminated-to-stopped" style="stroke:#181818;stroke-width:1.0;"/><polygon fill="#181818" points="334.5,1822.87,338.5,1813.87,334.5,1817.87,330.5,1813.87,334.5,1822.87" style="stroke:#181818;stroke-width:1.0;"/></g><!--SRC=[ZLLDRzim3BtdLmWvjKMBteqYm12qmmOKIzVkvEMWsMogrPOyILws5Vll8_LboKssvP18udiKHV8nzTcMNLois3ifhE2T-2NaRb7isCnQnTrQoKUn6pMtGidB9ko0VHob1Fql9_UMQtjfw3in5Wpt5jZI6Obsij6g0MF0d2uPDomQmZ5x8H9zSYBx1lteuBGex1y6aAnN68dI3X7M1MYTdd9tkt6eFHVsHkbaQ8_Xhsy_EKBAHWuqO-E2lhg27y9kb91sjSe1eBNIXymvQD0mO2pFY7l4dz836TyZ4urVyQSqBjy2ffbMJQV6zaBWqvde-Gvyp7H8HVAST0-rHx9LhCx8BRSSWUgxQA7TXhlsTkWTAGPJiHlHmVg9onsqjRSRrJo3POq6Z2THyo8wd0lChGu4vSuneD60N-SHL0oarJz3XsKkqbDcCOQMkiRSn_fch_RETiSIU22woNCDdO5jNibK9W9EJUg_QLz6Fo5evKYXRrcPstWwoowBAWdswFrHOC-I9EuT7ljOGaDgBj3klbSAgDYw4-WcaF1oxCP8sSuSh7nh8yUZhsbN4ZpZm3LPg7VziEO3_o8wd2HWZb1ymyPjvLWpuORoJfZiaeIzIrcVPfjhEo_ZgaIoauuRox0GRGVwrFj28bP1zJsUBjXlAaCv5KEVKDE4aKWXBjAe801DHpULutXy0DqBoTs0VCcLOuC1Q8RGYmxC6EgWu15HpPCI3PI8vAKzFgcM6xK7tQgzB8TjEYx0RwX6D2VScw9_x3F7I_UbMH_RTNfFr4dAHHH3V4e4f02gscabjg32BjyUfhs-lugAdGYJtwZCqQ3B5ekcXdDcQ3cad5ZbIEVCwzUA7lHSubC6ZmI10bDcfgjB3MRimT_wMJPSDj2nXyd__tacWXfjxcsMyGGkVSGkFfY_AZWwOYm6R1sxWGB6JFk_leAnUFLl_pU7apmeY06Rjv262OTpOKICjz85zTasF38JWjEz1_q1]--></g></svg>