<?xml version="1.0" encoding="us-ascii" standalone="no"?><svg xmlns="http://www.w3.org/2000/svg" xmlns:xlink="http://www.w3.org/1999/xlink" contentStyleType="text/css" height="1955px" preserveAspectRatio="none" style="width:833px;height:1955px;background:#FFFFFF;" version="1.1" viewBox="0 0 833 1955" width="833px" zoomAndPan="magnify"><defs/><g><!--cluster StartingProcess--><g id="cluster_StartingProcess"><path d="M159.5,200 L681.5,200 A12.5,12.5 0 0 1 694,212.5 L694,221.2969 L147,221.2969 L147,212.5 A12.5,12.5 0 0 1 159.5,200 " fill="#F1F1F1" style="stroke:#F1F1F1;stroke-width:1.0;"/><rect fill="none" height="850" rx="12.5" ry="12.5" style="stroke:#181818;stroke-width:0.5;" width="547" x="147" y="200"/><line style="stroke:#181818;stroke-width:0.5;" x1="147" x2="694" y1="221.2969" y2="221.2969"/><text fill="#000000" font-family="sans-serif" font-size="14" lengthAdjust="spacing" textLength="140" x="350.5" y="217.9951">Starting (Processes)</text></g><!--cluster Terminating--><g id="cluster_Terminating"><path d="M19.5,1274 L522.5,1274 A12.5,12.5 0 0 1 535,1286.5 L535,1295.2969 L7,1295.2969 L7,1286.5 A12.5,12.5 0 0 1 19.5,1274 " fill="#F1F1F1" style="stroke:#F1F1F1;stroke-width:1.0;"/><rect fill="none" height="456" rx="12.5" ry="12.5" style="stroke:#181818;stroke-width:0.5;" width="528" x="7" y="1274"/><line style="stroke:#181818;stroke-width:0.5;" x1="7" x2="535" y1="1295.2969" y2="1295.2969"/><text fill="#000000" font-family="sans-serif" font-size="14" lengthAdjust="spacing" textLength="82" x="230" y="1291.9951">Terminating</text></g><!--cluster Stopped--><g id="cluster_Stopped"><path d="M300.5,1827 L366.5,1827 A12.5,12.5 0 0 1 379,1839.5 L379,1848.2969 L288,1848.2969 L288,1839.5 A12.5,12.5 0 0 1 300.5,1827 " fill="#F1F1F1" style="stroke:#F1F1F1;stroke-width:1.0;"/><rect fill="none" height="122" rx="12.5" ry="12.5" style="stroke:#181818;stroke-width:0.5;" width="91" x="288" y="1827"/><line style="stroke:#181818;stroke-width:0.5;" x1="288" x2="379" y1="1848.2969" y2="1848.2969"/><text fill="#000000" font-family="sans-serif" font-size="14" lengthAdjust="spacing" textLength="59" x="304" y="1844.9951">Stopped</text></g><g id="StartingProcess.qemu"><rect fill="#F1F1F1" height="50.2656" rx="12.5" ry="12.5" style="stroke:#181818;stroke-width:0.5;" width="125" x="237.5" y="524"/><line style="stroke:#181818;stroke-width:0.5;" x1="237.5" x2="362.5" y1="550.2969" y2="550.2969"/><text fill="#000000" font-family="sans-serif" font-size="14" lengthAdjust="spacing" textLength="76" x="262" y="541.9951">Start qemu</text><text fill="#000000" font-family="sans-serif" font-size="12" lengthAdjust="spacing" textLength="105" x="242.5" y="566.4355">entry/start qemu</text></g><g id="StartingProcess.monitor"><rect fill="#F1F1F1" height="50.2656" rx="12.5" ry="12.5" style="stroke:#181818;stroke-width:0.5;" width="227" x="186.5" y="651"/><line style="stroke:#181818;stroke-width:0.5;" x1="186.5" x2="413.5" y1="677.2969" y2="677.2969"/><text fill="#000000" font-family="sans-serif" font-size="14" lengthAdjust="spacing" textLength="95" x="252.5" y="668.9951">Open monitor</text><text fill="#000000" font-family="sans-serif" font-size="12" lengthAdjust="spacing" textLength="207" x="191.5" y="693.4355">entry/fire OpenSocketConnection</text></g><g id="StartingProcess.waitForConfigured"><rect fill="#F1F1F1" height="50.2656" rx="12.5" ry="12.5" style="stroke:#181818;stroke-width:0.5;" width="180" x="323" y="778"/><line style="stroke:#181818;stroke-width:0.5;" x1="323" x2="503" y1="804.2969" y2="804.2969"/><text fill="#000000" font-family="sans-serif" font-size="14" lengthAdjust="spacing" textLength="103" x="361.5" y="795.9951">Configure QMP</text><text fill="#000000" font-family="sans-serif" font-size="12" lengthAdjust="spacing" textLength="160" x="328" y="820.4355">entry/fire QmpCapabilities</text></g><g id="StartingProcess.configure"><rect fill="#F1F1F1" height="50.2656" rx="12.5" ry="12.5" style="stroke:#181818;stroke-width:0.5;" width="176" x="294" y="905"/><line style="stroke:#181818;stroke-width:0.5;" x1="294" x2="470" y1="931.2969" y2="931.2969"/><text fill="#000000" font-family="sans-serif" font-size="14" lengthAdjust="spacing" textLength="113" x="325.5" y="922.9951">Configure QEMU</text><text fill="#000000" font-family="sans-serif" font-size="12" lengthAdjust="spacing" textLength="156" x="299" y="947.4355">entry/fire ConfigureQemu</text></g><text fill="#000000" font-family="sans-serif" font-size="14" lengthAdjust="spacing" textLength="58" x="340.5" y="1068.9951">success</text><ellipse cx="369.5" cy="1050" fill="#F1F1F1" rx="6" ry="6" style="stroke:#181818;stroke-width:1.5;"/><line style="stroke:#181818;stroke-width:1.5;" x1="373.8891" x2="366.1109" y1="1054.3891" y2="1046.6109"/><line style="stroke:#181818;stroke-width:1.5;" x1="373.8891" x2="366.1109" y1="1046.6109" y2="1054.3891"/><text fill="#000000" font-family="sans-serif" font-size="14" lengthAdjust="spacing" textLength="33" x="246.5" y="1068.9951">error</text><ellipse cx="263" cy="1050" fill="#F1F1F1" rx="6" ry="6" style="stroke:#181818;stroke-width:1.5;"/><line style="stroke:#181818;stroke-width:1.5;" x1="267.3891" x2="259.6109" y1="1054.3891" y2="1046.6109"/><line style="stroke:#181818;stroke-width:1.5;" x1="267.3891" x2="259.6109" y1="1046.6109" y2="1054.3891"/><rect fill="#555555" height="8" style="stroke:none;stroke-width:1.0;" width="80" x="339" y="243"/><rect fill="#555555" height="8" style="stroke:none;stroke-width:1.0;" width="80" x="260" y="455"/><g id="StartingProcess.cloudInit"><rect fill="#F1F1F1" height="50.2656" rx="12.5" ry="12.5" style="stroke:#181818;stroke-width:0.5;" width="217" x="279.5" y="328"/><line style="stroke:#181818;stroke-width:0.5;" x1="279.5" x2="496.5" y1="354.2969" y2="354.2969"/><text fill="#000000" font-family="sans-serif" font-size="14" lengthAdjust="spacing" textLength="178" x="299" y="345.9951">Generate cloud-init image</text><text fill="#000000" font-family="sans-serif" font-size="12" lengthAdjust="spacing" textLength="197" x="284.5" y="370.4355">entry/generate cloud-init image</text></g><g id="StartingProcess.swtpm"><rect fill="#F1F1F1" height="50.2656" rx="12.5" ry="12.5" style="stroke:#181818;stroke-width:0.5;" width="130" x="532" y="328"/><line style="stroke:#181818;stroke-width:0.5;" x1="532" x2="662" y1="354.2969" y2="354.2969"/><text fill="#000000" font-family="sans-serif" font-size="14" lengthAdjust="spacing" textLength="82" x="556" y="345.9951">Start swtpm</text><text fill="#000000" font-family="sans-serif" font-size="12" lengthAdjust="spacing" textLength="110" x="537" y="370.4355">entry/start swtpm</text></g><text fill="#000000" font-family="sans-serif" font-size="14" lengthAdjust="spacing" textLength="66" x="344.5" y="1252.6982">terminate</text><ellipse cx="377.5" cy="1274" fill="#F1F1F1" rx="6" ry="6" style="stroke:#181818;stroke-width:1.5;"/><g id="elem_qemuRunning"><polygon fill="#F1F1F1" points="378,1358,390,1370,378,1382,366,1370,378,1358" style="stroke:#181818;stroke-width:0.5;"/></g><text fill="#000000" font-family="sans-serif" font-size="14" lengthAdjust="spacing" textLength="75" x="296.5" y="1748.9951">terminated</text><ellipse cx="334" cy="1730" fill="#F1F1F1" rx="6" ry="6" style="stroke:#181818;stroke-width:1.5;"/><line style="stroke:#181818;stroke-width:1.5;" x1="338.3891" x2="330.6109" y1="1734.3891" y2="1726.6109"/><line style="stroke:#181818;stroke-width:1.5;" x1="338.3891" x2="330.6109" y1="1726.6109" y2="1734.3891"/><g id="Terminating.qemuPowerdown"><rect fill="#F1F1F1" height="50.2656" rx="12.5" ry="12.5" style="stroke:#181818;stroke-width:0.5;" width="387" x="23.5" y="1459"/><line style="stroke:#181818;stroke-width:0.5;" x1="23.5" x2="410.5" y1="1485.2969" y2="1485.2969"/><text fill="#000000" font-family="sans-serif" font-size="14" lengthAdjust="spacing" textLength="125" x="154.5" y="1476.9951">Powerdown qemu</text><text fill="#000000" font-family="sans-serif" font-size="12" lengthAdjust="spacing" textLength="367" x="28.5" y="1501.4355">entry/suspend Stop, send powerdown to qemu, start timer</text></g><g id="Terminating.terminateProcesses"><rect fill="#F1F1F1" height="50" rx="12.5" ry="12.5" style="stroke:#181818;stroke-width:0.5;" width="198" x="235" y="1601"/><line style="stroke:#181818;stroke-width:0.5;" x1="235" x2="433" y1="1627.2969" y2="1627.2969"/><text fill="#000000" font-family="sans-serif" font-size="14" lengthAdjust="spacing" textLength="178" x="245" y="1618.9951">Await process termination</text></g><text fill="#000000" font-family="sans-serif" font-size="14" lengthAdjust="spacing" textLength="58" x="304.5" y="1805.6982">stopped</text><ellipse cx="333.5" cy="1827" fill="#F1F1F1" rx="6" ry="6" style="stroke:#181818;stroke-width:1.5;"/><ellipse cx="334" cy="1922" fill="none" rx="11" ry="11" style="stroke:#222222;stroke-width:1.0;"/><ellipse cx="334" cy="1922" fill="#222222" rx="6" ry="6" style="stroke:#222222;stroke-width:1.0;"/><ellipse cx="379" cy="16" fill="#222222" rx="10" ry="10" style="stroke:#222222;stroke-width:1.0;"/><g id="Initializing"><rect fill="#F1F1F1" height="50" rx="12.5" ry="12.5" style="stroke:#181818;stroke-width:0.5;" width="86" x="336" y="87"/><line style="stroke:#181818;stroke-width:0.5;" x1="336" x2="422" y1="113.2969" y2="113.2969"/><text fill="#000000" font-family="sans-serif" font-size="14" lengthAdjust="spacing" textLength="66" x="346" y="104.9951">Initializing</text></g><g id="Running"><rect fill="#F1F1F1" height="50" rx="12.5" ry="12.5" style="stroke:#181818;stroke-width:0.5;" width="78" x="331" y="1129"/><line style="stroke:#181818;stroke-width:0.5;" x1="331" x2="409" y1="1155.2969" y2="1155.2969"/><text fill="#000000" font-family="sans-serif" font-size="14" lengthAdjust="spacing" textLength="58" x="341" y="1146.9951">Running</text></g><!--link *start* to Initializing--><g id="link_*start*_Initializing"><path d="M379,26.01 C379,39.89 379,60.97 379,80.84 " fill="none" id="*start*-to-Initializing" style="stroke:#181818;stroke-width:1.0;"/><polygon fill="#181818" points="379,86.84,383,77.84,379,81.84,375,77.84,379,86.84" style="stroke:#181818;stroke-width:1.0;"/></g><!--link Initializing to Initializing--><g id="link_Initializing_Initializing"><path d="M422.31,107 C441,106.59 457,108.26 457,112 C457,115.74 446.9986,117.5416 428.3086,117.1316 " fill="none" id="Initializing-to-Initializing" style="stroke:#181818;stroke-width:1.0;"/><polygon fill="#181818" points="422.31,117,431.2201,121.1964,427.3088,117.1097,431.3956,113.1983,422.31,117" style="stroke:#181818;stroke-width:1.0;"/><text fill="#000000" font-family="sans-serif" font-size="13" lengthAdjust="spacing" textLength="230" x="463" y="116.5669">InitialConfiguration/configure Runner</text></g><!--link Initializing to Initializing--><g id="link_Initializing_Initializing"><path d="M422.19,105.85 C512.17,98.97 699,101.02 699,112 C699,122.98 518.1525,125.4874 428.1725,118.6074 " fill="none" id="Initializing-to-Initializing-1" style="stroke:#181818;stroke-width:1.0;"/><polygon fill="#181818" points="422.19,118.15,430.8589,122.8245,427.1754,118.5312,431.4688,114.8478,422.19,118.15" style="stroke:#181818;stroke-width:1.0;"/><text fill="#000000" font-family="sans-serif" font-size="13" lengthAdjust="spacing" textLength="115" x="705" y="116.5669">Start/start Runner</text></g><!--link prepFork to cloudInit--><g id="link_prepFork_cloudInit"><path d="M378.63,251.09 C377.94,256.92 376.5,269.97 376,281 C375.66,288.55 375.18,290.49 376,298 C377.09,307.93 377.8828,312.8626 380.0928,322.1626 " fill="none" id="prepFork-to-cloudInit" style="stroke:#181818;stroke-width:1.0;"/><polygon fill="#181818" points="381.48,328,383.2909,318.3191,380.324,323.1355,375.5076,320.1686,381.48,328" style="stroke:#181818;stroke-width:1.0;"/><text fill="#000000" font-family="sans-serif" font-size="13" lengthAdjust="spacing" textLength="160" x="377" y="294.0669">[cloud-init data provided]</text></g><!--link swtpm to prepJoin--><g id="link_swtpm_prepJoin"><path d="M531.82,376.82 C457.37,402.89 347.2727,441.4467 314.5527,452.9067 " fill="none" id="swtpm-to-prepJoin" style="stroke:#181818;stroke-width:1.0;"/><polygon fill="#181818" points="308.89,454.89,318.7063,455.6901,313.6089,453.2372,316.0619,448.1399,308.89,454.89" style="stroke:#181818;stroke-width:1.0;"/><text fill="#000000" font-family="sans-serif" font-size="13" lengthAdjust="spacing" textLength="229" x="440" y="421.0669">FileChanged[swtpm socket created]</text></g><!--link prepFork to swtpm--><g id="link_prepFork_swtpm"><path d="M405.07,251.04 C445.1,256.07 519.43,266.99 542,281 C560.28,292.35 571.7273,306.9645 581.2673,322.7545 " fill="none" id="prepFork-to-swtpm" style="stroke:#181818;stroke-width:1.0;"/><polygon fill="#181818" points="584.37,327.89,583.1395,318.1183,581.7844,323.6104,576.2922,322.2553,584.37,327.89" style="stroke:#181818;stroke-width:1.0;"/><text fill="#000000" font-family="sans-serif" font-size="13" lengthAdjust="spacing" textLength="79" x="561" y="294.0669">[use swtpm]</text></g><!--link cloudInit to prepJoin--><g id="link_cloudInit_prepJoin"><path d="M327.01,378.25 C315.02,385.92 304,395.71 297,408 C288.14,423.57 293.3248,440.8604 296.5348,449.2004 " fill="none" id="cloudInit-to-prepJoin" style="stroke:#181818;stroke-width:1.0;"/><polygon fill="#181818" points="298.69,454.8,299.1902,444.9639,296.894,450.1337,291.7241,447.8375,298.69,454.8" style="stroke:#181818;stroke-width:1.0;"/><text fill="#000000" font-family="sans-serif" font-size="13" lengthAdjust="spacing" textLength="89" x="298" y="421.0669">ProcessExited</text></g><!--link prepFork to prepJoin--><g id="link_prepFork_prepJoin"><path d="M361.25,251.03 C327.44,257.86 254.49,277.96 224,328 C193.4,378.23 270.4033,437.1227 290.6833,451.4827 " fill="none" id="prepFork-to-prepJoin" style="stroke:#181818;stroke-width:1.0;"/><polygon fill="#181818" points="295.58,454.95,290.5465,446.4846,291.4994,452.0606,285.9234,453.0135,295.58,454.95" style="stroke:#181818;stroke-width:1.0;"/><text fill="#000000" font-family="sans-serif" font-size="13" lengthAdjust="spacing" textLength="36" x="225" y="357.5669">[else]</text></g><!--link prepJoin to qemu--><g id="link_prepJoin_qemu"><path d="M300,463.34 C300,473.14 300,496.43 300,517.82 " fill="none" id="prepJoin-to-qemu" style="stroke:#181818;stroke-width:1.0;"/><polygon fill="#181818" points="300,523.82,304,514.82,300,518.82,296,514.82,300,523.82" style="stroke:#181818;stroke-width:1.0;"/></g><!--link qemu to monitor--><g id="link_qemu_monitor"><path d="M300,574.1 C300,596.24 300,622.86 300,644.97 " fill="none" id="qemu-to-monitor" style="stroke:#181818;stroke-width:1.0;"/><polygon fill="#181818" points="300,650.97,304,641.97,300,645.97,296,641.97,300,650.97" style="stroke:#181818;stroke-width:1.0;"/><text fill="#000000" font-family="sans-serif" font-size="13" lengthAdjust="spacing" textLength="237" x="301" y="617.0669">FileChanged[monitor socket created]</text></g><!--link monitor to waitForConfigured--><g id="link_monitor_waitForConfigured"><path d="M321.79,701.1 C341.8,723.24 367.2661,751.4094 387.2561,773.5194 " fill="none" id="monitor-to-waitForConfigured" style="stroke:#181818;stroke-width:1.0;"/><polygon fill="#181818" points="391.28,777.97,388.2112,768.6114,387.9268,774.2611,382.2771,773.9766,391.28,777.97" style="stroke:#181818;stroke-width:1.0;"/><text fill="#000000" font-family="sans-serif" font-size="13" lengthAdjust="spacing" textLength="186" x="364" y="744.0669">ClientConnected[for monitor]</text></g><!--link monitor to error--><g id="link_monitor_error"><path d="M289.18,701.26 C274.59,735.41 249.36,799.99 240,858 C228.13,931.53 252.5831,1016.1685 259.5531,1038.2385 " fill="none" id="monitor-to-error" style="stroke:#181818;stroke-width:1.0;"/><polygon fill="#181818" points="261.36,1043.96,262.4639,1034.1732,259.8542,1039.1921,254.8353,1036.5824,261.36,1043.96" style="stroke:#181818;stroke-width:1.0;"/><text fill="#000000" font-family="sans-serif" font-size="13" lengthAdjust="spacing" textLength="165" x="241" y="871.0669">ConnectError[for monitor]</text></g><!--link waitForConfigured to configure--><g id="link_waitForConfigured_configure"><path d="M417.21,828.1 C418.78,842.06 419.28,859.81 415,875 C412.05,885.47 409.7151,890.8862 403.9551,899.7662 " fill="none" id="waitForConfigured-to-configure" style="stroke:#181818;stroke-width:1.0;"/><polygon fill="#181818" points="400.69,904.8,408.9436,899.4261,403.411,900.6052,402.2319,895.0726,400.69,904.8" style="stroke:#181818;stroke-width:1.0;"/><text fill="#000000" font-family="sans-serif" font-size="13" lengthAdjust="spacing" textLength="100" x="418" y="871.0669">QmpConfigured</text></g><!--link configure to success--><g id="link_configure_success"><path d="M377.36,955.11 C375.73,964.42 374.05,975.17 373,985 C370.69,1006.68 370.2255,1026.6804 370.1055,1037.6704 " fill="none" id="configure-to-success" style="stroke:#181818;stroke-width:1.0;"/><polygon fill="#181818" points="370.04,1043.67,374.138,1034.7142,370.0946,1038.6703,366.1385,1034.6269,370.04,1043.67" style="stroke:#181818;stroke-width:1.0;"/><text fill="#000000" font-family="sans-serif" font-size="13" lengthAdjust="spacing" textLength="314" x="374" y="998.0669">ConfigureQemu (last handler)/fire cont command</text></g><!--link Initializing to prepFork--><g id="link_Initializing_prepFork"><path d="M379,137.09 C379,170.62 379,222.86 379,236.89 " fill="none" id="Initializing-to-prepFork" style="stroke:#181818;stroke-width:1.0;"/><polygon fill="#181818" points="379,242.89,383,233.89,379,237.89,375,233.89,379,242.89" style="stroke:#181818;stroke-width:1.0;"/><text fill="#000000" font-family="sans-serif" font-size="13" lengthAdjust="spacing" textLength="48" x="380" y="180.0669">Started</text></g><!--link success to Running--><g id="link_success_Running"><path d="M370,1056.2 C370,1069.35 370,1098.62 370,1122.75 " fill="none" id="success-to-Running" style="stroke:#181818;stroke-width:1.0;"/><polygon fill="#181818" points="370,1128.75,374,1119.75,370,1123.75,366,1119.75,370,1128.75" style="stroke:#181818;stroke-width:1.0;"/></g><!--link terminate to qemuRunning--><g id="link_terminate_qemuRunning"><path d="M378,1280.05 C378,1294.7 378,1331.41 378,1351.85 " fill="none" id="terminate-to-qemuRunning" style="stroke:#181818;stroke-width:1.0;"/><polygon fill="#181818" points="378,1357.85,382,1348.85,378,1352.85,374,1348.85,378,1357.85" style="stroke:#181818;stroke-width:1.0;"/></g><!--link qemuRunning to qemuPowerdown--><g id="link_qemuRunning_qemuPowerdown"><path d="M371.49,1375.53 C351.6,1389.36 295.5759,1428.3443 256.4359,1455.5643 " fill="none" id="qemuRunning-to-qemuPowerdown" style="stroke:#181818;stroke-width:1.0;"/><polygon fill="#181818" points="251.51,1458.99,261.1827,1457.1353,255.6149,1456.1352,256.615,1450.5675,251.51,1458.99" style="stroke:#181818;stroke-width:1.0;"/><text fill="#000000" font-family="sans-serif" font-size="13" lengthAdjust="spacing" textLength="137" x="317" y="1425.0669">[qemu monitor open]</text></g><!--link qemuRunning to terminateProcesses--><g id="link_qemuRunning_terminateProcesses"><path d="M387.85,1372.36 C406.41,1375.52 446.19,1385.22 463,1412 C500.58,1471.85 502.15,1512.17 463,1571 C454.53,1583.73 447.6603,1590.5658 434.2103,1598.0058 " fill="none" id="qemuRunning-to-terminateProcesses" style="stroke:#181818;stroke-width:1.0;"/><polygon fill="#181818" points="428.96,1600.91,438.7716,1600.0538,433.3352,1598.4898,434.8993,1593.0535,428.96,1600.91" style="stroke:#181818;stroke-width:1.0;"/><text fill="#000000" font-family="sans-serif" font-size="13" lengthAdjust="spacing" textLength="36" x="492" y="1488.5669">[else]</text></g><!--link qemuPowerdown to terminateProcesses--><g id="link_qemuPowerdown_terminateProcesses"><path d="M120.71,1509.02 C82.36,1523.28 51.97,1543.92 74,1571 C94.37,1596.03 164.2586,1609.1603 228.8086,1616.5203 " fill="none" id="qemuPowerdown-to-terminateProcesses" style="stroke:#181818;stroke-width:1.0;"/><polygon fill="#181818" points="234.77,1617.2,226.2811,1612.2062,229.8022,1616.6336,225.3748,1620.1547,234.77,1617.2" style="stroke:#181818;stroke-width:1.0;"/><text fill="#000000" font-family="sans-serif" font-size="13" lengthAdjust="spacing" textLength="215" x="75" y="1552.0669">Closed[for monitor]/resume Stop,</text><text fill="#000000" font-family="sans-serif" font-size="13" lengthAdjust="spacing" textLength="81" x="142" y="1567.1997">cancel Timer</text></g><!--link qemuPowerdown to terminateProcesses--><g id="link_qemuPowerdown_terminateProcesses"><path d="M260.47,1509.04 C272.76,1517.34 285.4,1527.49 295,1539 C310.23,1557.25 318.7948,1576.7372 325.0248,1595.1272 " fill="none" id="qemuPowerdown-to-terminateProcesses-1" style="stroke:#181818;stroke-width:1.0;"/><polygon fill="#181818" points="326.95,1600.81,327.8508,1591.0024,325.3457,1596.0744,320.2738,1593.5693,326.95,1600.81" style="stroke:#181818;stroke-width:1.0;"/><text fill="#000000" font-family="sans-serif" font-size="13" lengthAdjust="spacing" textLength="139" x="315" y="1559.5669">Timeout/resume Stop</text></g><!--link terminateProcesses to terminated--><g id="link_terminateProcesses_terminated"><path d="M334,1651.17 C334,1675.21 334,1704.36 334,1717.65 " fill="none" id="terminateProcesses-to-terminated" style="stroke:#181818;stroke-width:1.0;"/><polygon fill="#181818" points="334,1723.65,338,1714.65,334,1718.65,330,1714.65,334,1723.65" style="stroke:#181818;stroke-width:1.0;"/></g><!--link Running to terminate--><g id="link_Running_terminate"><path d="M349.47,1179.32 C340.55,1192.89 333.29,1210.19 339,1226 C345.48,1243.95 357.5502,1256.0237 366.8602,1263.9037 " fill="none" id="Running-to-terminate" style="stroke:#181818;stroke-width:1.0;"/><polygon fill="#181818" points="371.44,1267.78,367.1546,1258.9124,367.6235,1264.5497,361.9862,1265.0187,371.44,1267.78" style="stroke:#181818;stroke-width:1.0;"/><text fill="#000000" font-family="sans-serif" font-size="13" lengthAdjust="spacing" textLength="30" x="340" y="1222.0669">Stop</text></g><!--link Running to terminate--><g id="link_Running_terminate"><path d="M372.47,1179.17 C373.37,1188.49 374.32,1199.23 375,1209 C376.52,1230.75 377.2734,1250.7132 377.6334,1261.6932 " fill="none" id="Running-to-terminate-1" style="stroke:#181818;stroke-width:1.0;"/><polygon fill="#181818" points="377.83,1267.69,381.5329,1258.5638,377.6662,1262.6927,373.5372,1258.8259,377.83,1267.69" style="stroke:#181818;stroke-width:1.0;"/><text fill="#000000" font-family="sans-serif" font-size="13" lengthAdjust="spacing" textLength="190" x="376" y="1222.0669">ProcessExited[process qemu]</text></g><!--link error to terminate--><g id="link_error_terminate"><path d="M264.03,1056.27 C268.55,1078.47 288.21,1166.05 328,1226 C340.12,1244.26 355.8015,1257.0155 366.3915,1264.7355 " fill="none" id="error-to-terminate" style="stroke:#181818;stroke-width:1.0;"/><polygon fill="#181818" points="371.24,1268.27,366.3236,1259.736,367.1996,1265.3246,361.611,1266.2006,371.24,1268.27" style="stroke:#181818;stroke-width:1.0;"/></g><!--link StartingProcess to terminate--><g id="link_StartingProcess_terminate"><path d="M694.0157,276.4016 C695.1267,278.6664 696.2498,281.0313 697.3688,283.4825 C706.32,303.0925 715,328.235 715,352 C715,352 715,352 715,1155 C715,1228.3 433.3341,1266.1393 389.5241,1271.5893 " fill="none" id="StartingProcess-to-terminate" style="stroke:#181818;stroke-width:1.0;"/><polygon fill="#181818" points="383.57,1272.33,392.995,1275.1884,388.5318,1271.7128,392.0074,1267.2496,383.57,1272.33" style="stroke:#181818;stroke-width:1.0;"/><text fill="#000000" font-family="sans-serif" font-size="13" lengthAdjust="spacing" textLength="89" x="716" y="744.0669">ProcessExited</text></g><!--link stopped to *end*Stopped--><g id="link_stopped_*end*Stopped"><path d="M334,1833 C334,1847.71 334,1885.07 334,1904.9 " fill="none" id="stopped-to-*end*Stopped" style="stroke:#181818;stroke-width:1.0;"/><polygon fill="#181818" points="334,1910.9,338,1901.9,334,1905.9,330,1901.9,334,1910.9" style="stroke:#181818;stroke-width:1.0;"/></g><!--link terminated to stopped--><g id="link_terminated_stopped"><path d="M334,1736.11 C334,1752.6 334,1798.34 334,1814.87 " fill="none" id="terminated-to-stopped" style="stroke:#181818;stroke-width:1.0;"/><polygon fill="#181818" points="334,1820.87,338,1811.87,334,1815.87,330,1811.87,334,1820.87" style="stroke:#181818;stroke-width:1.0;"/></g><!--SRC=[ZLLDRzim3BtdLmWvjKMBteqYm12qmmOKIzVkvEMWsMogrPOyILws5Vll8_LboKssvP18udiKHV8nzTcMNLois3ifhE2T-2NaRb7isCnQnTrQoKUn6pMtGidB9ko0VHob1Fql9_UMQtjfw3in5Wpt5jZI6Obsij6g0MF0d2uPDomQmZ5x8H9zSYBx1lteuBGex1y6aAnN68dI3X7M1MYTdd9tkt6eFHVsHkbaQ8_Xhsy_EKBAHWuqO-E2lhg27y9kb91sjSe1eBNIXymvQD0mO2pFY7l4dz836TyZ4urVyQSqBjy2ffbMJQV6zaBWqvde-Gvyp7H8HVAST0-rHx9LhCx8BRSSWUgxQA7TXhlsTkWTAGPJiHlHmVg9onsqjRSRrJo3POq6Z2THyo8wd0lChGu4vSuneD60N-SHL0oarJz3XsKkqbDcCOQMkiRSn_fch_RETiSIU22woNCDdO5jNibK9W9EJUg_QLz6Fo5evKYXRrcPstWwoowBAWdswFrHOC-I9EuT7ljOGaDgBj3klbSAgDYw4-WcaF1oxCP8sSuSh7nh8yUZhsbN4ZpZm3LPg7VziEO3_o8wd2HWZb1ymyPjvLWpuORoJfZiaeIzIrcVPfjhEo_ZgaIoauuRox0GRGVwrFj28bP1zJsUBjXlAaCv5KEVKDE4aKWXBjAe801DHpULutXy0DqBoTs0VCcLOuC1Q8RGYmxC6EgWu15HpPCI3PI8vAKzFgcM6xK7tQgzB8TjEYx0RwX6D2VScw9_x3F7I_UbMH_RTNfFr4dAHHH3V4e4f02gscabjg32BjyUfhs-lugAdGYJtwZCqQ3B5ekcXdDcQ3cad5ZbIEVCwzUA7lHSubC6ZmI10bDcfgjB3MRimT_wMJPSDj2nXyd__tacWXfjxcsMyGGkVSGkFfY_AZWwOYm6R1sxWGB6JFk_leAnUFLl_pU7apmeY06Rjv262OTpOKICjz85zTasF38JWjEz1_q1]--></g></svg>