<?xml version="1.0" encoding="us-ascii" standalone="no"?><svg xmlns="http://www.w3.org/2000/svg" xmlns:xlink="http://www.w3.org/1999/xlink" contentStyleType="text/css" height="550px" preserveAspectRatio="none" style="width:855px;height:550px;background:#FFFFFF;" version="1.1" viewBox="0 0 855 550" width="855px" zoomAndPan="magnify"><defs/><g><!--cluster Conceptual WebConsole--><g id="cluster_Conceptual WebConsole"><rect fill="none" height="203" rx="2.5" ry="2.5" style="stroke:#181818;stroke-width:1.0;" width="209" x="425.5" y="341"/><text fill="#000000" font-family="sans-serif" font-size="14" font-weight="bold" lengthAdjust="spacing" textLength="193" x="433.5" y="355.9951">Conceptual WebConsole</text></g><!--entity ConsoleWeblet--><g id="elem_ConsoleWeblet"><rect fill="#FEFECE" height="46.2969" rx="2.5" ry="2.5" style="stroke:#A80036;stroke-width:1.25;" width="145" x="457" y="376"/><rect fill="#FEFECE" height="10" style="stroke:#A80036;stroke-width:1.25;" width="15" x="582" y="381"/><rect fill="#FEFECE" height="2" style="stroke:#A80036;stroke-width:1.25;" width="4" x="580" y="383"/><rect fill="#FEFECE" height="2" style="stroke:#A80036;stroke-width:1.25;" width="4" x="580" y="387"/><text fill="#000000" font-family="sans-serif" font-size="14" lengthAdjust="spacing" textLength="105" x="472" y="408.9951">ConsoleWeblet</text></g><!--entity WebConsole--><g id="elem_WebConsole"><rect fill="#FEFECE" height="46.2969" rx="2.5" ry="2.5" style="stroke:#A80036;stroke-width:1.25;" width="128" x="465.5" y="482"/><rect fill="#FEFECE" height="10" style="stroke:#A80036;stroke-width:1.25;" width="15" x="573.5" y="487"/><rect fill="#FEFECE" height="2" style="stroke:#A80036;stroke-width:1.25;" width="4" x="571.5" y="489"/><rect fill="#FEFECE" height="2" style="stroke:#A80036;stroke-width:1.25;" width="4" x="571.5" y="493"/><text fill="#000000" font-family="sans-serif" font-size="14" lengthAdjust="spacing" textLength="88" x="480.5" y="514.9951">WebConsole</text></g><!--entity NioDispatcher--><g id="elem_NioDispatcher"><rect fill="#F1F1F1" height="62.5938" rx="2.5" ry="2.5" style="stroke:#181818;stroke-width:1.0;" width="137" x="434" y="7"/><rect fill="#F1F1F1" height="10" style="stroke:#181818;stroke-width:1.0;" width="15" x="551" y="12"/><rect fill="#F1F1F1" height="2" style="stroke:#181818;stroke-width:1.0;" width="4" x="549" y="14"/><rect fill="#F1F1F1" height="2" style="stroke:#181818;stroke-width:1.0;" width="4" x="549" y="18"/><text fill="#000000" font-family="sans-serif" font-size="14" font-style="italic" lengthAdjust="spacing" textLength="69" x="463" y="39.9951">&#171;internal&#187;</text><text fill="#000000" font-family="sans-serif" font-size="14" lengthAdjust="spacing" textLength="97" x="449" y="56.292">NioDispatcher</text></g><!--entity Manager--><g id="elem_Manager"><rect fill="#FEFECE" height="46.2969" rx="2.5" ry="2.5" style="stroke:#A80036;stroke-width:1.25;" width="100" x="277.5" y="138.5"/><rect fill="#FEFECE" height="10" style="stroke:#A80036;stroke-width:1.25;" width="15" x="357.5" y="143.5"/><rect fill="#FEFECE" height="2" style="stroke:#A80036;stroke-width:1.25;" width="4" x="355.5" y="145.5"/><rect fill="#FEFECE" height="2" style="stroke:#A80036;stroke-width:1.25;" width="4" x="355.5" y="149.5"/><text fill="#000000" font-family="sans-serif" font-size="14" lengthAdjust="spacing" textLength="60" x="292.5" y="171.4951">Manager</text></g><!--entity HttpConnector--><g id="elem_HttpConnector"><rect fill="#F1F1F1" height="62.5938" rx="2.5" ry="2.5" style="stroke:#181818;stroke-width:1.0;" width="142" x="256.5" y="7"/><rect fill="#F1F1F1" height="10" style="stroke:#181818;stroke-width:1.0;" width="15" x="378.5" y="12"/><rect fill="#F1F1F1" height="2" style="stroke:#181818;stroke-width:1.0;" width="4" x="376.5" y="14"/><rect fill="#F1F1F1" height="2" style="stroke:#181818;stroke-width:1.0;" width="4" x="376.5" y="18"/><text fill="#000000" font-family="sans-serif" font-size="14" font-style="italic" lengthAdjust="spacing" textLength="69" x="288" y="39.9951">&#171;internal&#187;</text><text fill="#000000" font-family="sans-serif" font-size="14" lengthAdjust="spacing" textLength="102" x="271.5" y="56.292">HttpConnector</text></g><!--entity FileSystemWatcher--><g id="elem_FileSystemWatcher"><rect fill="#F1F1F1" height="62.5938" rx="2.5" ry="2.5" style="stroke:#181818;stroke-width:1.0;" width="171" x="50" y="7"/><rect fill="#F1F1F1" height="10" style="stroke:#181818;stroke-width:1.0;" width="15" x="201" y="12"/><rect fill="#F1F1F1" height="2" style="stroke:#181818;stroke-width:1.0;" width="4" x="199" y="14"/><rect fill="#F1F1F1" height="2" style="stroke:#181818;stroke-width:1.0;" width="4" x="199" y="18"/><text fill="#000000" font-family="sans-serif" font-size="14" font-style="italic" lengthAdjust="spacing" textLength="69" x="96" y="39.9951">&#171;internal&#187;</text><text fill="#000000" font-family="sans-serif" font-size="14" lengthAdjust="spacing" textLength="131" x="65" y="56.292">FileSystemWatcher</text></g><!--entity YamlConfigurationStore--><g id="elem_YamlConfigurationStore"><rect fill="#F1F1F1" height="62.5938" rx="2.5" ry="2.5" style="stroke:#181818;stroke-width:1.0;" width="202" x="40.5" y="130"/><rect fill="#F1F1F1" height="10" style="stroke:#181818;stroke-width:1.0;" width="15" x="222.5" y="135"/><rect fill="#F1F1F1" height="2" style="stroke:#181818;stroke-width:1.0;" width="4" x="220.5" y="137"/><rect fill="#F1F1F1" height="2" style="stroke:#181818;stroke-width:1.0;" width="4" x="220.5" y="141"/><text fill="#000000" font-family="sans-serif" font-size="14" font-style="italic" lengthAdjust="spacing" textLength="69" x="102" y="162.9951">&#171;internal&#187;</text><text fill="#000000" font-family="sans-serif" font-size="14" lengthAdjust="spacing" textLength="162" x="55.5" y="179.292">YamlConfigurationStore</text></g><!--entity Controller--><g id="elem_Controller"><rect fill="#FEFECE" height="46.2969" rx="2.5" ry="2.5" style="stroke:#A80036;stroke-width:1.25;" width="107" x="88" y="261.5"/><rect fill="#FEFECE" height="10" style="stroke:#A80036;stroke-width:1.25;" width="15" x="175" y="266.5"/><rect fill="#FEFECE" height="2" style="stroke:#A80036;stroke-width:1.25;" width="4" x="173" y="268.5"/><rect fill="#FEFECE" height="2" style="stroke:#A80036;stroke-width:1.25;" width="4" x="173" y="272.5"/><text fill="#000000" font-family="sans-serif" font-size="14" lengthAdjust="spacing" textLength="67" x="103" y="294.4951">Controller</text></g><!--entity VmWatcher--><g id="elem_VmWatcher"><rect fill="#FEFECE" height="46.2969" rx="2.5" ry="2.5" style="stroke:#A80036;stroke-width:1.25;" width="119" x="7" y="376"/><rect fill="#FEFECE" height="10" style="stroke:#A80036;stroke-width:1.25;" width="15" x="106" y="381"/><rect fill="#FEFECE" height="2" style="stroke:#A80036;stroke-width:1.25;" width="4" x="104" y="383"/><rect fill="#FEFECE" height="2" style="stroke:#A80036;stroke-width:1.25;" width="4" x="104" y="387"/><text fill="#000000" font-family="sans-serif" font-size="14" lengthAdjust="spacing" textLength="79" x="22" y="408.9951">VmWatcher</text></g><!--entity Reconciler--><g id="elem_Reconciler"><rect fill="#FEFECE" height="46.2969" rx="2.5" ry="2.5" style="stroke:#A80036;stroke-width:1.25;" width="113" x="161" y="376"/><rect fill="#FEFECE" height="10" style="stroke:#A80036;stroke-width:1.25;" width="15" x="254" y="381"/><rect fill="#FEFECE" height="2" style="stroke:#A80036;stroke-width:1.25;" width="4" x="252" y="383"/><rect fill="#FEFECE" height="2" style="stroke:#A80036;stroke-width:1.25;" width="4" x="252" y="387"/><text fill="#000000" font-family="sans-serif" font-size="14" lengthAdjust="spacing" textLength="73" x="176" y="408.9951">Reconciler</text></g><!--entity GuiHttpServer--><g id="elem_GuiHttpServer"><rect fill="#FEFECE" height="46.2969" rx="2.5" ry="2.5" style="stroke:#A80036;stroke-width:1.25;" width="136" x="461.5" y="261.5"/><rect fill="#FEFECE" height="10" style="stroke:#A80036;stroke-width:1.25;" width="15" x="577.5" y="266.5"/><rect fill="#FEFECE" height="2" style="stroke:#A80036;stroke-width:1.25;" width="4" x="575.5" y="268.5"/><rect fill="#FEFECE" height="2" style="stroke:#A80036;stroke-width:1.25;" width="4" x="575.5" y="272.5"/><text fill="#000000" font-family="sans-serif" font-size="14" lengthAdjust="spacing" textLength="96" x="476.5" y="294.4951">GuiHttpServer</text></g><!--entity GuiSocketServer:8080--><g id="elem_GuiSocketServer:8080"><rect fill="#FEFECE" height="46.2969" rx="2.5" ry="2.5" style="stroke:#A80036;stroke-width:1.25;" width="196" x="230.5" y="261.5"/><rect fill="#FEFECE" height="10" style="stroke:#A80036;stroke-width:1.25;" width="15" x="406.5" y="266.5"/><rect fill="#FEFECE" height="2" style="stroke:#A80036;stroke-width:1.25;" width="4" x="404.5" y="268.5"/><rect fill="#FEFECE" height="2" style="stroke:#A80036;stroke-width:1.25;" width="4" x="404.5" y="272.5"/><text fill="#000000" font-family="sans-serif" font-size="14" lengthAdjust="spacing" textLength="156" x="245.5" y="294.4951">GuiSocketServer:8080</text></g><!--entity PreferencesStore--><g id="elem_PreferencesStore"><rect fill="#F1F1F1" height="62.5938" rx="2.5" ry="2.5" style="stroke:#181818;stroke-width:1.0;" width="161" x="431" y="130"/><rect fill="#F1F1F1" height="10" style="stroke:#181818;stroke-width:1.0;" width="15" x="572" y="135"/><rect fill="#F1F1F1" height="2" style="stroke:#181818;stroke-width:1.0;" width="4" x="570" y="137"/><rect fill="#F1F1F1" height="2" style="stroke:#181818;stroke-width:1.0;" width="4" x="570" y="141"/><text fill="#000000" font-family="sans-serif" font-size="14" font-style="italic" lengthAdjust="spacing" textLength="69" x="472" y="162.9951">&#171;internal&#187;</text><text fill="#000000" font-family="sans-serif" font-size="14" lengthAdjust="spacing" textLength="121" x="446" y="179.292">PreferencesStore</text></g><!--entity InMemorySessionManager--><g id="elem_InMemorySessionManager"><rect fill="#F1F1F1" height="62.5938" rx="2.5" ry="2.5" style="stroke:#181818;stroke-width:1.0;" width="222" x="627.5" y="130"/><rect fill="#F1F1F1" height="10" style="stroke:#181818;stroke-width:1.0;" width="15" x="829.5" y="135"/><rect fill="#F1F1F1" height="2" style="stroke:#181818;stroke-width:1.0;" width="4" x="827.5" y="137"/><rect fill="#F1F1F1" height="2" style="stroke:#181818;stroke-width:1.0;" width="4" x="827.5" y="141"/><text fill="#000000" font-family="sans-serif" font-size="14" font-style="italic" lengthAdjust="spacing" textLength="69" x="699" y="162.9951">&#171;internal&#187;</text><text fill="#000000" font-family="sans-serif" font-size="14" lengthAdjust="spacing" textLength="182" x="642.5" y="179.292">InMemorySessionManager</text></g><!--entity LanguageSelector--><g id="elem_LanguageSelector"><rect fill="#F1F1F1" height="62.5938" rx="2.5" ry="2.5" style="stroke:#181818;stroke-width:1.0;" width="165" x="633" y="253"/><rect fill="#F1F1F1" height="10" style="stroke:#181818;stroke-width:1.0;" width="15" x="778" y="258"/><rect fill="#F1F1F1" height="2" style="stroke:#181818;stroke-width:1.0;" width="4" x="776" y="260"/><rect fill="#F1F1F1" height="2" style="stroke:#181818;stroke-width:1.0;" width="4" x="776" y="264"/><text fill="#000000" font-family="sans-serif" font-size="14" font-style="italic" lengthAdjust="spacing" textLength="69" x="676" y="285.9951">&#171;internal&#187;</text><text fill="#000000" font-family="sans-serif" font-size="14" lengthAdjust="spacing" textLength="125" x="648" y="302.292">LanguageSelector</text></g><!--link NioDispatcher to Manager--><g id="link_NioDispatcher_Manager"><path d="M458.34,70.03 C427.56,91.32 397.0691,112.3936 369.3691,131.5536 " fill="none" id="NioDispatcher-to-Manager" style="stroke:#181818;stroke-width:1.0;"/><polygon fill="#181818" points="359.5,138.38,366.71,138.2565,369.3691,131.5536,362.1591,131.6771,359.5,138.38" style="stroke:#181818;stroke-width:1.0;"/></g><!--link HttpConnector to Manager--><g id="link_HttpConnector_Manager"><path d="M327.5,70.03 C327.5,91.32 327.5,107.22 327.5,126.38 " fill="none" id="HttpConnector-to-Manager" style="stroke:#181818;stroke-width:1.0;"/><polygon fill="#181818" points="327.5,138.38,331.5,132.38,327.5,126.38,323.5,132.38,327.5,138.38" style="stroke:#181818;stroke-width:1.0;"/></g><!--link FileSystemWatcher to Manager--><g id="link_FileSystemWatcher_Manager"><path d="M183.95,70.03 C217.72,91.32 251.8481,112.8216 282.2481,131.9816 " fill="none" id="FileSystemWatcher-to-Manager" style="stroke:#181818;stroke-width:1.0;"/><polygon fill="#181818" points="292.4,138.38,289.4568,131.7969,282.2481,131.9816,285.1913,138.5648,292.4,138.38" style="stroke:#181818;stroke-width:1.0;"/></g><!--link YamlConfigurationStore to Manager--><g id="link_YamlConfigurationStore_Manager"><path d="M242.86,161.5 C254.32,161.5 253.78,161.5 265.24,161.5 " fill="none" id="YamlConfigurationStore-to-Manager" style="stroke:#181818;stroke-width:1.0;"/><polygon fill="#181818" points="277.24,161.5,271.24,157.5,265.24,161.5,271.24,165.5,277.24,161.5" style="stroke:#181818;stroke-width:1.0;"/></g><!--reverse link YamlConfigurationStore to Controller--><!--reverse link Manager to Controller--><g id="link_Manager_Controller"><path d="M283.3222,191.2353 C249.7622,213.0753 208.88,239.66 175.4,261.45 " fill="none" id="Manager-backto-Controller" style="stroke:#181818;stroke-width:1.0;"/><polygon fill="#181818" points="293.38,184.69,286.1693,184.6101,283.3222,191.2353,290.5329,191.3153,293.38,184.69" style="stroke:#181818;stroke-width:1.0;"/></g><!--reverse link Controller to VmWatcher--><g id="link_Controller_VmWatcher"><path d="M120.0224,317.7138 C106.8724,337.4338 94.43,356.11 81.29,375.82 " fill="none" id="Controller-backto-VmWatcher" style="stroke:#181818;stroke-width:1.0;"/><polygon fill="#181818" points="126.68,307.73,120.0233,310.5027,120.0224,317.7138,126.6792,314.9411,126.68,307.73" style="stroke:#181818;stroke-width:1.0;"/></g><!--reverse link Controller to Reconciler--><g id="link_Controller_Reconciler"><path d="M163.2368,317.6741 C176.5568,337.3941 189.2,356.11 202.52,375.82 " fill="none" id="Controller-backto-Reconciler" style="stroke:#181818;stroke-width:1.0;"/><polygon fill="#181818" points="156.52,307.73,156.5637,314.941,163.2368,317.6741,163.1931,310.4631,156.52,307.73" style="stroke:#181818;stroke-width:1.0;"/></g><!--link Controller to GuiHttpServer--><!--reverse link Manager to GuiSocketServer:8080--><g id="link_Manager_GuiSocketServer:8080"><path d="M327.7789,196.6896 C327.9589,218.5296 328.14,239.66 328.32,261.45 " fill="none" id="Manager-backto-GuiSocketServer:8080" style="stroke:#181818;stroke-width:1.0;"/><polygon fill="#181818" points="327.68,184.69,323.7296,190.7228,327.7789,196.6896,331.7293,190.6568,327.68,184.69" style="stroke:#181818;stroke-width:1.0;"/></g><!--reverse link Manager to GuiHttpServer--><g id="link_Manager_GuiHttpServer"><path d="M374.8437,190.8577 C411.2937,212.6977 456.32,239.66 492.68,261.45 " fill="none" id="Manager-backto-GuiHttpServer" style="stroke:#181818;stroke-width:1.0;"/><polygon fill="#181818" points="364.55,184.69,367.6409,191.2051,374.8437,190.8577,371.7527,184.3426,364.55,184.69" style="stroke:#181818;stroke-width:1.0;"/></g><!--link PreferencesStore to GuiHttpServer--><g id="link_PreferencesStore_GuiHttpServer"><path d="M516.04,193.03 C519.21,214.32 521.5945,230.3506 524.4445,249.5106 " fill="none" id="PreferencesStore-to-GuiHttpServer" style="stroke:#181818;stroke-width:1.0;"/><polygon fill="#181818" points="526.21,261.38,529.2837,254.8568,524.4445,249.5106,521.3708,256.0338,526.21,261.38" style="stroke:#181818;stroke-width:1.0;"/></g><!--link InMemorySessionManager to GuiHttpServer--><g id="link_InMemorySessionManager_GuiHttpServer"><path d="M685.76,193.03 C649,214.32 611.1848,236.2069 578.0948,255.3669 " fill="none" id="InMemorySessionManager-to-GuiHttpServer" style="stroke:#181818;stroke-width:1.0;"/><polygon fill="#181818" points="567.71,261.38,574.9067,261.8351,578.0948,255.3669,570.898,254.9119,567.71,261.38" style="stroke:#181818;stroke-width:1.0;"/></g><!--reverse link GuiHttpServer to LanguageSelector--><g id="link_GuiHttpServer_LanguageSelector"><path d="M609.8,284.5 C621.44,284.5 621.09,284.5 632.74,284.5 " fill="none" id="GuiHttpServer-backto-LanguageSelector" style="stroke:#181818;stroke-width:1.0;"/><polygon fill="#181818" points="597.8,284.5,603.8,288.5,609.8,284.5,603.8,280.5,597.8,284.5" style="stroke:#181818;stroke-width:1.0;"/></g><!--reverse link ConsoleWeblet to WebConsole--><g id="link_ConsoleWeblet_WebConsole"><path d="M529.5,434.06 C529.5,451.7 529.5,464.34 529.5,481.98 " fill="none" id="ConsoleWeblet-backto-WebConsole" style="stroke:#181818;stroke-width:1.0;"/><polygon fill="#181818" points="529.5,422.06,525.5,428.06,529.5,434.06,533.5,428.06,529.5,422.06" style="stroke:#181818;stroke-width:1.0;"/></g><!--reverse link GuiHttpServer to ConsoleWeblet--><g id="link_GuiHttpServer_ConsoleWeblet"><path d="M529.5,319.73 C529.5,339.45 529.5,356.11 529.5,375.82 " fill="none" id="GuiHttpServer-backto-ConsoleWeblet" style="stroke:#181818;stroke-width:1.0;"/><polygon fill="#181818" points="529.5,307.73,525.5,313.73,529.5,319.73,533.5,313.73,529.5,307.73" style="stroke:#181818;stroke-width:1.0;"/></g><!--SRC=[ZPHHQzim4CVV_IcEzgsGacnqX58ARPQqXRMCkgoCu0TDlZWYyib8yaOe- -uzEsuSsGafVjBT__w_auwpMoagX1KvI9CNXf0yl4K0S2lawiwQajA9qSR2wMmwcqwcTShO56qJlXaFXr-_jU6NfP8hGkTWTFxbuiCfQvskhXHvj2JqzJMxZgglunfAHkFgsqC8PEpnFmAtlKx1L95XxDSQmQBqWZAD4KGmsLxqIPdloXN2ooLQ4AuJsFMFOFueY0rj0cU3iXZ0F10dkxxttXSJGyHKK_k6WIE-WJZmdIcDyTfvp5_Rdll18_wzWe3nM-IQwGkLbLPuPIZcBh027SWSfcbSUERjhsFeeGoNMfKj_NofqXGfOGzMUMkqhfeD8PraSDgaV-tSivzzHcb8gZt5lIRkIbND9aRxjrQ7ZQJc7sr4iP4hz1lPvNWu7YQzbhjMxVl_jBX0YoJHRL- -5-kyUUZsCUTkLO1ve4VCZLt7l4Vyy4rt5Un0vbF8_RK1-0VlOLaj9khjUlHYns3rP9ZNBQo7qcm-dF0m9HQ-51fUyG-VdD5uilczpPiZ9pJwPYgjAgd_9dtme5lu3W00]--></g></svg>