<?xml version="1.0" encoding="us-ascii" standalone="no"?><svg xmlns="http://www.w3.org/2000/svg" xmlns:xlink="http://www.w3.org/1999/xlink" contentStyleType="text/css" height="600px" preserveAspectRatio="none" style="width:853px;height:600px;background:#FFFFFF;" version="1.1" viewBox="0 0 853 600" width="853px" zoomAndPan="magnify"><defs/><g><!--cluster Conceptual WebConsole--><g id="cluster_Conceptual WebConsole"><rect fill="none" height="203.59" rx="2.5" ry="2.5" style="stroke:#181818;stroke-width:1.0;" width="209" x="160.5" y="290.89"/><text fill="#000000" font-family="sans-serif" font-size="14" font-weight="bold" lengthAdjust="spacing" textLength="193" x="168.5" y="305.8851">Conceptual WebConsole</text></g><!--entity ConsoleWeblet--><g id="elem_ConsoleWeblet"><rect fill="#F1F1F1" height="46.2969" rx="2.5" ry="2.5" style="stroke:#181818;stroke-width:0.5;" width="145" x="208" y="325.89"/><rect fill="#F1F1F1" height="10" style="stroke:#181818;stroke-width:0.5;" width="15" x="333" y="330.89"/><rect fill="#F1F1F1" height="2" style="stroke:#181818;stroke-width:0.5;" width="4" x="331" y="332.89"/><rect fill="#F1F1F1" height="2" style="stroke:#181818;stroke-width:0.5;" width="4" x="331" y="336.89"/><text fill="#000000" font-family="sans-serif" font-size="14" lengthAdjust="spacing" textLength="105" x="223" y="358.8851">ConsoleWeblet</text></g><!--entity WebConsole--><g id="elem_WebConsole"><rect fill="#F1F1F1" height="46.2969" rx="2.5" ry="2.5" style="stroke:#181818;stroke-width:0.5;" width="128" x="219.5" y="432.19"/><rect fill="#F1F1F1" height="10" style="stroke:#181818;stroke-width:0.5;" width="15" x="327.5" y="437.19"/><rect fill="#F1F1F1" height="2" style="stroke:#181818;stroke-width:0.5;" width="4" x="325.5" y="439.19"/><rect fill="#F1F1F1" height="2" style="stroke:#181818;stroke-width:0.5;" width="4" x="325.5" y="443.19"/><text fill="#000000" font-family="sans-serif" font-size="14" lengthAdjust="spacing" textLength="88" x="234.5" y="465.1851">WebConsole</text></g><!--entity mgr--><g id="elem_mgr"><ellipse cx="222.5" cy="136.44" fill="#F1F1F1" rx="8" ry="8" style="stroke:#181818;stroke-width:0.5;"/><text fill="#000000" font-family="sans-serif" font-size="14" lengthAdjust="spacing" textLength="61" x="192" y="166.4351">manager</text></g><!--entity FileSystemWatcher--><g id="elem_FileSystemWatcher"><rect fill="#F1F1F1" height="46.2969" rx="2.5" ry="2.5" style="stroke:#181818;stroke-width:0.5;" width="171" x="7" y="113.3"/><rect fill="#F1F1F1" height="10" style="stroke:#181818;stroke-width:0.5;" width="15" x="158" y="118.3"/><rect fill="#F1F1F1" height="2" style="stroke:#181818;stroke-width:0.5;" width="4" x="156" y="120.3"/><rect fill="#F1F1F1" height="2" style="stroke:#181818;stroke-width:0.5;" width="4" x="156" y="124.3"/><text fill="#000000" font-family="sans-serif" font-size="14" lengthAdjust="spacing" textLength="131" x="22" y="146.2951">FileSystemWatcher</text></g><!--entity YamlConfigurationStore--><g id="elem_YamlConfigurationStore"><rect fill="#F1F1F1" height="46.2969" rx="2.5" ry="2.5" style="stroke:#181818;stroke-width:0.5;" width="202" x="266.5" y="113.3"/><rect fill="#F1F1F1" height="10" style="stroke:#181818;stroke-width:0.5;" width="15" x="448.5" y="118.3"/><rect fill="#F1F1F1" height="2" style="stroke:#181818;stroke-width:0.5;" width="4" x="446.5" y="120.3"/><rect fill="#F1F1F1" height="2" style="stroke:#181818;stroke-width:0.5;" width="4" x="446.5" y="124.3"/><text fill="#000000" font-family="sans-serif" font-size="14" lengthAdjust="spacing" textLength="162" x="281.5" y="146.2951">YamlConfigurationStore</text></g><!--entity Controller--><g id="elem_Controller"><rect fill="#F1F1F1" height="46.2969" rx="2.5" ry="2.5" style="stroke:#181818;stroke-width:0.5;" width="107" x="155" y="219.59"/><rect fill="#F1F1F1" height="10" style="stroke:#181818;stroke-width:0.5;" width="15" x="242" y="224.59"/><rect fill="#F1F1F1" height="2" style="stroke:#181818;stroke-width:0.5;" width="4" x="240" y="226.59"/><rect fill="#F1F1F1" height="2" style="stroke:#181818;stroke-width:0.5;" width="4" x="240" y="230.59"/><text fill="#000000" font-family="sans-serif" font-size="14" lengthAdjust="spacing" textLength="67" x="170" y="252.5851">Controller</text></g><!--entity Manager--><g id="elem_Manager"><rect fill="#F1F1F1" height="46.2969" rx="2.5" ry="2.5" style="stroke:#181818;stroke-width:0.5;" width="100" x="199.5" y="7"/><rect fill="#F1F1F1" height="10" style="stroke:#181818;stroke-width:0.5;" width="15" x="279.5" y="12"/><rect fill="#F1F1F1" height="2" style="stroke:#181818;stroke-width:0.5;" width="4" x="277.5" y="14"/><rect fill="#F1F1F1" height="2" style="stroke:#181818;stroke-width:0.5;" width="4" x="277.5" y="18"/><text fill="#000000" font-family="sans-serif" font-size="14" lengthAdjust="spacing" textLength="60" x="214.5" y="39.9951">Manager</text></g><!--entity VmWatcher--><g id="elem_VmWatcher"><rect fill="#F1F1F1" height="46.2969" rx="2.5" ry="2.5" style="stroke:#181818;stroke-width:0.5;" width="119" x="45" y="7"/><rect fill="#F1F1F1" height="10" style="stroke:#181818;stroke-width:0.5;" width="15" x="144" y="12"/><rect fill="#F1F1F1" height="2" style="stroke:#181818;stroke-width:0.5;" width="4" x="142" y="14"/><rect fill="#F1F1F1" height="2" style="stroke:#181818;stroke-width:0.5;" width="4" x="142" y="18"/><text fill="#000000" font-family="sans-serif" font-size="14" lengthAdjust="spacing" textLength="79" x="60" y="39.9951">VmWatcher</text></g><!--entity Reconciler--><g id="elem_Reconciler"><rect fill="#F1F1F1" height="46.2969" rx="2.5" ry="2.5" style="stroke:#181818;stroke-width:0.5;" width="113" x="297" y="219.59"/><rect fill="#F1F1F1" height="10" style="stroke:#181818;stroke-width:0.5;" width="15" x="390" y="224.59"/><rect fill="#F1F1F1" height="2" style="stroke:#181818;stroke-width:0.5;" width="4" x="388" y="226.59"/><rect fill="#F1F1F1" height="2" style="stroke:#181818;stroke-width:0.5;" width="4" x="388" y="230.59"/><text fill="#000000" font-family="sans-serif" font-size="14" lengthAdjust="spacing" textLength="73" x="312" y="252.5851">Reconciler</text></g><!--entity hT--><g id="elem_hT"><ellipse cx="512.5" cy="136.44" fill="#F1F1F1" rx="8" ry="8" style="stroke:#181818;stroke-width:0.5;"/><text fill="#000000" font-family="sans-serif" font-size="14" lengthAdjust="spacing" textLength="88" x="468.5" y="166.4351">guiTransport</text></g><!--entity GuiSocketServer:8080--><g id="elem_GuiSocketServer:8080"><rect fill="#F1F1F1" height="46.2969" rx="2.5" ry="2.5" style="stroke:#181818;stroke-width:0.5;" width="196" x="387.5" y="7"/><rect fill="#F1F1F1" height="10" style="stroke:#181818;stroke-width:0.5;" width="15" x="563.5" y="12"/><rect fill="#F1F1F1" height="2" style="stroke:#181818;stroke-width:0.5;" width="4" x="561.5" y="14"/><rect fill="#F1F1F1" height="2" style="stroke:#181818;stroke-width:0.5;" width="4" x="561.5" y="18"/><text fill="#000000" font-family="sans-serif" font-size="14" lengthAdjust="spacing" textLength="156" x="402.5" y="39.9951">GuiSocketServer:8080</text></g><!--entity GuiHttpServer--><g id="elem_GuiHttpServer"><rect fill="#F1F1F1" height="46.2969" rx="2.5" ry="2.5" style="stroke:#181818;stroke-width:0.5;" width="136" x="444.5" y="219.59"/><rect fill="#F1F1F1" height="10" style="stroke:#181818;stroke-width:0.5;" width="15" x="560.5" y="224.59"/><rect fill="#F1F1F1" height="2" style="stroke:#181818;stroke-width:0.5;" width="4" x="558.5" y="226.59"/><rect fill="#F1F1F1" height="2" style="stroke:#181818;stroke-width:0.5;" width="4" x="558.5" y="230.59"/><text fill="#000000" font-family="sans-serif" font-size="14" lengthAdjust="spacing" textLength="96" x="459.5" y="252.5851">GuiHttpServer</text></g><!--entity HttpConnector--><g id="elem_HttpConnector"><rect fill="#F1F1F1" height="46.2969" rx="2.5" ry="2.5" style="stroke:#181818;stroke-width:0.5;" width="142" x="562.5" y="113.3"/><rect fill="#F1F1F1" height="10" style="stroke:#181818;stroke-width:0.5;" width="15" x="684.5" y="118.3"/><rect fill="#F1F1F1" height="2" style="stroke:#181818;stroke-width:0.5;" width="4" x="682.5" y="120.3"/><rect fill="#F1F1F1" height="2" style="stroke:#181818;stroke-width:0.5;" width="4" x="682.5" y="124.3"/><text fill="#000000" font-family="sans-serif" font-size="14" lengthAdjust="spacing" textLength="102" x="577.5" y="146.2951">HttpConnector</text></g><!--entity http--><g id="elem_http"><ellipse cx="572.5" cy="349.04" fill="#F1F1F1" rx="8" ry="8" style="stroke:#181818;stroke-width:0.5;"/><text fill="#000000" font-family="sans-serif" font-size="14" lengthAdjust="spacing" textLength="50" x="547.5" y="379.0351">guiHttp</text></g><g id="elem_GMN32"><path d="M618.5,10.01 L618.5,50.2756 A0,0 0 0 0 618.5,50.2756 L679.03,50.2756 L646.62,113.02 L687.03,50.2756 L770.5,50.2756 A0,0 0 0 0 770.5,50.2756 L770.5,20.01 L760.5,10.01 L618.5,10.01 A0,0 0 0 0 618.5,10.01 " fill="#FEFFDD" style="stroke:#181818;stroke-width:0.5;"/><path d="M760.5,10.01 L760.5,20.01 L770.5,20.01 L760.5,10.01 " fill="#FEFFDD" style="stroke:#181818;stroke-width:0.5;"/><text fill="#000000" font-family="sans-serif" font-size="13" lengthAdjust="spacing" textLength="131" x="624.5" y="27.0769">transport layer com-</text><text fill="#000000" font-family="sans-serif" font-size="13" lengthAdjust="spacing" textLength="106" x="624.5" y="42.2097">ponents omitted</text></g><!--entity PreferencesStore--><g id="elem_PreferencesStore"><rect fill="#F1F1F1" height="46.2969" rx="2.5" ry="2.5" style="stroke:#181818;stroke-width:0.5;" width="161" x="686" y="219.59"/><rect fill="#F1F1F1" height="10" style="stroke:#181818;stroke-width:0.5;" width="15" x="827" y="224.59"/><rect fill="#F1F1F1" height="2" style="stroke:#181818;stroke-width:0.5;" width="4" x="825" y="226.59"/><rect fill="#F1F1F1" height="2" style="stroke:#181818;stroke-width:0.5;" width="4" x="825" y="230.59"/><text fill="#000000" font-family="sans-serif" font-size="14" lengthAdjust="spacing" textLength="121" x="701" y="252.5851">PreferencesStore</text></g><!--entity OidcClient--><g id="elem_OidcClient"><rect fill="#F1F1F1" height="46.2969" rx="2.5" ry="2.5" style="stroke:#181818;stroke-width:0.5;" width="110" x="385.5" y="432.19"/><rect fill="#F1F1F1" height="10" style="stroke:#181818;stroke-width:0.5;" width="15" x="475.5" y="437.19"/><rect fill="#F1F1F1" height="2" style="stroke:#181818;stroke-width:0.5;" width="4" x="473.5" y="439.19"/><rect fill="#F1F1F1" height="2" style="stroke:#181818;stroke-width:0.5;" width="4" x="473.5" y="443.19"/><text fill="#000000" font-family="sans-serif" font-size="14" lengthAdjust="spacing" textLength="70" x="400.5" y="465.1851">OidcClient</text></g><!--entity LanguageSelector--><g id="elem_LanguageSelector"><rect fill="#F1F1F1" height="46.2969" rx="2.5" ry="2.5" style="stroke:#181818;stroke-width:0.5;" width="165" x="617" y="325.89"/><rect fill="#F1F1F1" height="10" style="stroke:#181818;stroke-width:0.5;" width="15" x="762" y="330.89"/><rect fill="#F1F1F1" height="2" style="stroke:#181818;stroke-width:0.5;" width="4" x="760" y="332.89"/><rect fill="#F1F1F1" height="2" style="stroke:#181818;stroke-width:0.5;" width="4" x="760" y="336.89"/><text fill="#000000" font-family="sans-serif" font-size="14" lengthAdjust="spacing" textLength="125" x="632" y="358.8851">LanguageSelector</text></g><!--entity InMemorySessionManager--><g id="elem_InMemorySessionManager"><rect fill="#F1F1F1" height="46.2969" rx="2.5" ry="2.5" style="stroke:#181818;stroke-width:0.5;" width="222" x="530.5" y="432.19"/><rect fill="#F1F1F1" height="10" style="stroke:#181818;stroke-width:0.5;" width="15" x="732.5" y="437.19"/><rect fill="#F1F1F1" height="2" style="stroke:#181818;stroke-width:0.5;" width="4" x="730.5" y="439.19"/><rect fill="#F1F1F1" height="2" style="stroke:#181818;stroke-width:0.5;" width="4" x="730.5" y="443.19"/><text fill="#000000" font-family="sans-serif" font-size="14" lengthAdjust="spacing" textLength="182" x="545.5" y="465.1851">InMemorySessionManager</text></g><!--entity console--><g id="elem_console"><ellipse cx="363.5" cy="561.63" fill="#F1F1F1" rx="8" ry="8" style="stroke:#181818;stroke-width:0.5;"/><text fill="#000000" font-family="sans-serif" font-size="14" lengthAdjust="spacing" textLength="55" x="336" y="591.6251">console</text></g><!--entity LoginConlet--><g id="elem_LoginConlet"><rect fill="#F1F1F1" height="46.2969" rx="2.5" ry="2.5" style="stroke:#181818;stroke-width:0.5;" width="122" x="197.5" y="538.48"/><rect fill="#F1F1F1" height="10" style="stroke:#181818;stroke-width:0.5;" width="15" x="299.5" y="543.48"/><rect fill="#F1F1F1" height="2" style="stroke:#181818;stroke-width:0.5;" width="4" x="297.5" y="545.48"/><rect fill="#F1F1F1" height="2" style="stroke:#181818;stroke-width:0.5;" width="4" x="297.5" y="549.48"/><text fill="#000000" font-family="sans-serif" font-size="14" lengthAdjust="spacing" textLength="82" x="212.5" y="571.4751">LoginConlet</text></g><g id="elem_GMN57"><path d="M407,541.5 L407,557.63 L372.88,561.63 L407,565.63 L407,581.7656 A0,0 0 0 0 407,581.7656 L512,581.7656 A0,0 0 0 0 512,581.7656 L512,551.5 L502,541.5 L407,541.5 A0,0 0 0 0 407,541.5 " fill="#FEFFDD" style="stroke:#181818;stroke-width:0.5;"/><path d="M502,541.5 L502,551.5 L512,551.5 L502,541.5 " fill="#FEFFDD" style="stroke:#181818;stroke-width:0.5;"/><text fill="#000000" font-family="sans-serif" font-size="13" lengthAdjust="spacing" textLength="82" x="413" y="558.5669">More conlets</text><text fill="#000000" font-family="sans-serif" font-size="13" lengthAdjust="spacing" textLength="84" x="413" y="573.6997">connect here</text></g><!--link FileSystemWatcher to mgr--><g id="link_FileSystemWatcher_mgr"><path d="M178.32,136.44 C189.94,136.44 201.56,136.44 213.18,136.44 " fill="none" id="FileSystemWatcher-mgr" style="stroke:#181818;stroke-width:1.0;stroke-dasharray:7.0,7.0;"/></g><!--link mgr to YamlConfigurationStore--><g id="link_mgr_YamlConfigurationStore"><path d="M231.85,136.44 C243.24,136.44 254.63,136.44 266.02,136.44 " fill="none" id="mgr-YamlConfigurationStore" style="stroke:#181818;stroke-width:1.0;stroke-dasharray:7.0,7.0;"/></g><!--link mgr to Controller--><g id="link_mgr_Controller"><path d="M221.4,145.63 C219.3,161.28 214.64,195.97 211.54,219.1 " fill="none" id="mgr-Controller" style="stroke:#181818;stroke-width:1.0;stroke-dasharray:7.0,7.0;"/></g><!--link Manager to mgr--><g id="link_Manager_mgr"><path d="M243.64,53.78 C237.69,76.78 228.77,111.22 224.69,127 " fill="none" id="Manager-mgr" style="stroke:#181818;stroke-width:1.0;stroke-dasharray:7.0,7.0;"/></g><!--link VmWatcher to mgr--><g id="link_VmWatcher_mgr"><path d="M130.1,53.78 C156.27,76.9 195.5,111.58 213.22,127.24 " fill="none" id="VmWatcher-mgr" style="stroke:#181818;stroke-width:1.0;stroke-dasharray:7.0,7.0;"/></g><!--link mgr to Reconciler--><g id="link_mgr_Reconciler"><path d="M231.57,145.33 C236.53,149.6 242.8,154.94 248.5,159.59 C273.78,180.23 303.06,203.06 324.27,219.4 " fill="none" id="mgr-Reconciler" style="stroke:#181818;stroke-width:1.0;stroke-dasharray:7.0,7.0;"/></g><!--link GuiSocketServer:8080 to hT--><g id="link_GuiSocketServer:8080_hT"><path d="M491.36,53.78 C497.31,76.78 506.23,111.22 510.31,127 " fill="none" id="GuiSocketServer:8080-hT" style="stroke:#181818;stroke-width:1.0;stroke-dasharray:7.0,7.0;"/></g><!--link hT to GuiHttpServer--><g id="link_hT_GuiHttpServer"><path d="M512.5,145.63 C512.5,161.28 512.5,195.97 512.5,219.1 " fill="none" id="hT-GuiHttpServer" style="stroke:#181818;stroke-width:1.0;stroke-dasharray:7.0,7.0;"/></g><!--link hT to HttpConnector--><!--link YamlConfigurationStore to hT--><!--link GuiHttpServer to http--><g id="link_GuiHttpServer_http"><path d="M525.52,266.37 C538.75,289.38 558.56,323.81 567.64,339.59 " fill="none" id="GuiHttpServer-http" style="stroke:#181818;stroke-width:1.0;stroke-dasharray:7.0,7.0;"/></g><!--link HttpConnector to http--><g id="link_HttpConnector_http"><path d="M627.7,159.8 C620.97,185.48 609.4,228.86 598.5,265.89 C590.47,293.16 580.04,325.2 575.19,339.91 " fill="none" id="HttpConnector-http" style="stroke:#181818;stroke-width:1.0;stroke-dasharray:7.0,7.0;"/></g><!--link PreferencesStore to http--><g id="link_PreferencesStore_http"><path d="M685.72,261 C644.88,270.02 603.13,279.81 599.5,282.89 C581.96,297.79 575.62,325.94 573.49,339.84 " fill="none" id="PreferencesStore-http" style="stroke:#181818;stroke-width:1.0;stroke-dasharray:7.0,7.0;"/></g><!--link http to OidcClient--><g id="link_http_OidcClient"><path d="M563.01,357.54 C543.62,372.86 498.79,408.28 469.08,431.75 " fill="none" id="http-OidcClient" style="stroke:#181818;stroke-width:1.0;stroke-dasharray:7.0,7.0;"/></g><!--link http to LanguageSelector--><g id="link_http_LanguageSelector"><path d="M581.93,349.04 C593.56,349.04 605.2,349.04 616.83,349.04 " fill="none" id="http-LanguageSelector" style="stroke:#181818;stroke-width:1.0;stroke-dasharray:7.0,7.0;"/></g><!--link http to InMemorySessionManager--><g id="link_http_InMemorySessionManager"><path d="M577.91,358.22 C588.27,373.88 611.22,408.56 626.52,431.7 " fill="none" id="http-InMemorySessionManager" style="stroke:#181818;stroke-width:1.0;stroke-dasharray:7.0,7.0;"/></g><!--link ConsoleWeblet to http--><g id="link_ConsoleWeblet_http"><path d="M353.5,349.04 C423.36,349.04 493.23,349.04 563.09,349.04 " fill="none" id="ConsoleWeblet-http" style="stroke:#181818;stroke-width:1.0;stroke-dasharray:7.0,7.0;"/></g><!--reverse link ConsoleWeblet to WebConsole--><g id="link_ConsoleWeblet_WebConsole"><path d="M281.4929,384.6651 C281.9929,402.1551 282.35,414.27 282.85,431.75 " fill="none" id="ConsoleWeblet-backto-WebConsole" style="stroke:#181818;stroke-width:1.0;"/><polygon fill="#181818" points="281.15,372.67,277.3231,378.7819,281.4929,384.6651,285.3198,378.5532,281.15,372.67" style="stroke:#181818;stroke-width:1.0;"/></g><!--link Controller to ConsoleWeblet--><!--link console to WebConsole--><g id="link_console_WebConsole"><path d="M357.02,552.18 C344.92,536.41 318.51,501.97 300.86,478.97 " fill="none" id="console-WebConsole" style="stroke:#181818;stroke-width:1.0;stroke-dasharray:7.0,7.0;"/></g><!--link OidcClient to console--><g id="link_OidcClient_console"><path d="M423.79,478.97 C406.81,501.97 381.39,536.41 369.74,552.18 " fill="none" id="OidcClient-console" style="stroke:#181818;stroke-width:1.0;stroke-dasharray:7.0,7.0;"/></g><!--link LoginConlet to console--><g id="link_LoginConlet_console"><path d="M319.61,561.63 C331.16,561.63 342.7,561.63 354.24,561.63 " fill="none" id="LoginConlet-console" style="stroke:#181818;stroke-width:1.0;stroke-dasharray:7.0,7.0;"/></g><!--SRC=[TLDBYzim4BxxLmmvjGM7FIwvBlG16rhgfKlnvg3A4qT4rXXft19A_tj73zTnbXuifFdcySryut0sRbHU3J0gVLOzDdon21urAzTRhA22DszXCoWdeD-02Z3qlee7R2qUUGljUsEnkGJ6uLcnFg4_5DoR_XGTlgl1Ff0xcdxoYWsvXidZx2KE0h8dQvVGQHJpFbTTsRxT5X7RLzJajCdXcN0_cIUlN1Z9Ss9zUghaAqa-JAOXVKPkqFz4lxk_kxyxPBoZNovxV6GUCrwWr4vxCbs7xY0-qK6OEnaMvSh_wnJgLMoTsFmZ6lDaZdAfqhdmNBDOeDlYZXY1QGGwte8xu7aKODK5FMWQwXStaaF70MWmpDYb1hvuFA97fp4KwZBWpAlzR3hzO8t473A9Od-KLPdYxg3D1UVDAFWdjyU1_AN146GaiwhNEQfv_s0Zl3MEF2aBp_X3Ne4iRk1t1P0M9Ju5i1XPb0tBILxZx-eePmtjaab6zITrUhLpMVKhPTTfPgdqp4MaAlTgliGnBKLIWTMujaj4-qYzSUAvQa4laKdAP8vY5c07Uv4ZlYGil3YTvGNv4_0l]--></g></svg>