<?xml version="1.0" encoding="us-ascii" standalone="no"?><svg xmlns="http://www.w3.org/2000/svg" xmlns:xlink="http://www.w3.org/1999/xlink" contentStyleType="text/css" height="443px" preserveAspectRatio="none" style="width:789px;height:443px;background:#FFFFFF;" version="1.1" viewBox="0 0 789 443" width="789px" zoomAndPan="magnify"><defs/><g><!--cluster Providers and Conlets--><g id="cluster_Providers and Conlets"><rect fill="none" height="97" rx="2.5" ry="2.5" style="stroke:#181818;stroke-width:1.0;" width="196" x="485" y="340"/><text fill="#000000" font-family="sans-serif" font-size="14" font-weight="bold" lengthAdjust="spacing" textLength="175" x="495.5" y="354.9951">Providers and Conlets</text></g><!--entity Some component--><g id="elem_Some component"><rect fill="#FEFECE" height="46.2969" rx="2.5" ry="2.5" style="stroke:#A80036;stroke-width:1.25;" width="164" x="501" y="375"/><rect fill="#FEFECE" height="10" style="stroke:#A80036;stroke-width:1.25;" width="15" x="645" y="380"/><rect fill="#FEFECE" height="2" style="stroke:#A80036;stroke-width:1.25;" width="4" x="643" y="382"/><rect fill="#FEFECE" height="2" style="stroke:#A80036;stroke-width:1.25;" width="4" x="643" y="386"/><text fill="#000000" font-family="sans-serif" font-size="14" lengthAdjust="spacing" textLength="124" x="516" y="407.9951">Some component</text></g><!--entity BrowserLocalBackedKVStore--><g id="elem_BrowserLocalBackedKVStore"><rect fill="#F1F1F1" height="62.5938" rx="2.5" ry="2.5" style="stroke:#181818;stroke-width:1.0;" width="239" x="389.5" y="7"/><rect fill="#F1F1F1" height="10" style="stroke:#181818;stroke-width:1.0;" width="15" x="608.5" y="12"/><rect fill="#F1F1F1" height="2" style="stroke:#181818;stroke-width:1.0;" width="4" x="606.5" y="14"/><rect fill="#F1F1F1" height="2" style="stroke:#181818;stroke-width:1.0;" width="4" x="606.5" y="18"/><text fill="#000000" font-family="sans-serif" font-size="14" font-style="italic" lengthAdjust="spacing" textLength="69" x="469.5" y="39.9951">&#171;internal&#187;</text><text fill="#000000" font-family="sans-serif" font-size="14" lengthAdjust="spacing" textLength="199" x="404.5" y="56.292">BrowserLocalBackedKVStore</text></g><!--entity WebConsole--><g id="elem_WebConsole"><rect fill="#FEFECE" height="46.2969" rx="2.5" ry="2.5" style="stroke:#A80036;stroke-width:1.25;" width="128" x="309" y="130"/><rect fill="#FEFECE" height="10" style="stroke:#A80036;stroke-width:1.25;" width="15" x="417" y="135"/><rect fill="#FEFECE" height="2" style="stroke:#A80036;stroke-width:1.25;" width="4" x="415" y="137"/><rect fill="#FEFECE" height="2" style="stroke:#A80036;stroke-width:1.25;" width="4" x="415" y="141"/><text fill="#000000" font-family="sans-serif" font-size="14" lengthAdjust="spacing" textLength="88" x="324" y="162.9951">WebConsole</text></g><!--entity KVStoreBasedConsolePolicy--><g id="elem_KVStoreBasedConsolePolicy"><rect fill="#F1F1F1" height="62.5938" rx="2.5" ry="2.5" style="stroke:#181818;stroke-width:1.0;" width="235" x="119.5" y="7"/><rect fill="#F1F1F1" height="10" style="stroke:#181818;stroke-width:1.0;" width="15" x="334.5" y="12"/><rect fill="#F1F1F1" height="2" style="stroke:#181818;stroke-width:1.0;" width="4" x="332.5" y="14"/><rect fill="#F1F1F1" height="2" style="stroke:#181818;stroke-width:1.0;" width="4" x="332.5" y="18"/><text fill="#000000" font-family="sans-serif" font-size="14" font-style="italic" lengthAdjust="spacing" textLength="69" x="197.5" y="39.9951">&#171;internal&#187;</text><text fill="#000000" font-family="sans-serif" font-size="14" lengthAdjust="spacing" textLength="195" x="134.5" y="56.292">KVStoreBasedConsolePolicy</text></g><!--entity RoleConfigurator--><g id="elem_RoleConfigurator"><rect fill="#FEFECE" height="46.2969" rx="2.5" ry="2.5" style="stroke:#A80036;stroke-width:1.25;" width="156" x="7" y="252.5"/><rect fill="#FEFECE" height="10" style="stroke:#A80036;stroke-width:1.25;" width="15" x="143" y="257.5"/><rect fill="#FEFECE" height="2" style="stroke:#A80036;stroke-width:1.25;" width="4" x="141" y="259.5"/><rect fill="#FEFECE" height="2" style="stroke:#A80036;stroke-width:1.25;" width="4" x="141" y="263.5"/><text fill="#000000" font-family="sans-serif" font-size="14" lengthAdjust="spacing" textLength="116" x="22" y="285.4951">RoleConfigurator</text></g><!--entity RoleConletFilter--><g id="elem_RoleConletFilter"><rect fill="#FEFECE" height="46.2969" rx="2.5" ry="2.5" style="stroke:#A80036;stroke-width:1.25;" width="149" x="198.5" y="252.5"/><rect fill="#FEFECE" height="10" style="stroke:#A80036;stroke-width:1.25;" width="15" x="327.5" y="257.5"/><rect fill="#FEFECE" height="2" style="stroke:#A80036;stroke-width:1.25;" width="4" x="325.5" y="259.5"/><rect fill="#FEFECE" height="2" style="stroke:#A80036;stroke-width:1.25;" width="4" x="325.5" y="263.5"/><text fill="#000000" font-family="sans-serif" font-size="14" lengthAdjust="spacing" textLength="109" x="213.5" y="285.4951">RoleConletFilter</text></g><!--entity LoginConlet--><g id="elem_LoginConlet"><rect fill="#FEFECE" height="46.2969" rx="2.5" ry="2.5" style="stroke:#A80036;stroke-width:1.25;" width="122" x="152" y="130"/><rect fill="#FEFECE" height="10" style="stroke:#A80036;stroke-width:1.25;" width="15" x="254" y="135"/><rect fill="#FEFECE" height="2" style="stroke:#A80036;stroke-width:1.25;" width="4" x="252" y="137"/><rect fill="#FEFECE" height="2" style="stroke:#A80036;stroke-width:1.25;" width="4" x="252" y="141"/><text fill="#000000" font-family="sans-serif" font-size="14" lengthAdjust="spacing" textLength="82" x="167" y="162.9951">LoginConlet</text></g><!--entity OidcClient--><g id="elem_OidcClient"><rect fill="#FEFECE" height="46.2969" rx="2.5" ry="2.5" style="stroke:#A80036;stroke-width:1.25;" width="110" x="472" y="130"/><rect fill="#FEFECE" height="10" style="stroke:#A80036;stroke-width:1.25;" width="15" x="562" y="135"/><rect fill="#FEFECE" height="2" style="stroke:#A80036;stroke-width:1.25;" width="4" x="560" y="137"/><rect fill="#FEFECE" height="2" style="stroke:#A80036;stroke-width:1.25;" width="4" x="560" y="141"/><text fill="#000000" font-family="sans-serif" font-size="14" lengthAdjust="spacing" textLength="70" x="487" y="162.9951">OidcClient</text></g><!--entity cpr--><g id="elem_cpr"><rect fill="#F1F1F1" height="78.8906" rx="2.5" ry="2.5" style="stroke:#181818;stroke-width:1.0;" width="183" x="382.5" y="236"/><rect fill="#F1F1F1" height="10" style="stroke:#181818;stroke-width:1.0;" width="15" x="545.5" y="241"/><rect fill="#F1F1F1" height="2" style="stroke:#181818;stroke-width:1.0;" width="4" x="543.5" y="243"/><rect fill="#F1F1F1" height="2" style="stroke:#181818;stroke-width:1.0;" width="4" x="543.5" y="247"/><text fill="#000000" font-family="sans-serif" font-size="14" font-style="italic" lengthAdjust="spacing" textLength="69" x="434.5" y="268.9951">&#171;internal&#187;</text><text fill="#000000" font-family="sans-serif" font-size="14" lengthAdjust="spacing" textLength="143" x="397.5" y="285.292">ComponentCollector</text><text fill="#000000" font-family="sans-serif" font-size="14" lengthAdjust="spacing" textLength="131" x="397.5" y="301.5889">for page resources</text></g><!--entity cc--><g id="elem_cc"><rect fill="#F1F1F1" height="78.8906" rx="2.5" ry="2.5" style="stroke:#181818;stroke-width:1.0;" width="183" x="600.5" y="236"/><rect fill="#F1F1F1" height="10" style="stroke:#181818;stroke-width:1.0;" width="15" x="763.5" y="241"/><rect fill="#F1F1F1" height="2" style="stroke:#181818;stroke-width:1.0;" width="4" x="761.5" y="243"/><rect fill="#F1F1F1" height="2" style="stroke:#181818;stroke-width:1.0;" width="4" x="761.5" y="247"/><text fill="#000000" font-family="sans-serif" font-size="14" font-style="italic" lengthAdjust="spacing" textLength="69" x="652.5" y="268.9951">&#171;internal&#187;</text><text fill="#000000" font-family="sans-serif" font-size="14" lengthAdjust="spacing" textLength="143" x="615.5" y="285.292">ComponentCollector</text><text fill="#000000" font-family="sans-serif" font-size="14" lengthAdjust="spacing" textLength="73" x="615.5" y="301.5889">for conlets</text></g><!--link BrowserLocalBackedKVStore to WebConsole--><g id="link_BrowserLocalBackedKVStore_WebConsole"><path d="M471.84,70.24 C449.03,89.11 429.5951,105.1796 409.0151,122.2096 " fill="none" id="BrowserLocalBackedKVStore-to-WebConsole" style="stroke:#181818;stroke-width:1.0;"/><polygon fill="#181818" points="399.77,129.86,406.9427,129.1165,409.0151,122.2096,401.8424,122.9531,399.77,129.86" style="stroke:#181818;stroke-width:1.0;"/></g><!--link KVStoreBasedConsolePolicy to WebConsole--><g id="link_KVStoreBasedConsolePolicy_WebConsole"><path d="M274.16,70.24 C296.97,89.11 316.4049,105.1796 336.9849,122.2096 " fill="none" id="KVStoreBasedConsolePolicy-to-WebConsole" style="stroke:#181818;stroke-width:1.0;"/><polygon fill="#181818" points="346.23,129.86,344.1576,122.9531,336.9849,122.2096,339.0573,129.1165,346.23,129.86" style="stroke:#181818;stroke-width:1.0;"/></g><!--reverse link WebConsole to RoleConfigurator--><g id="link_WebConsole_RoleConfigurator"><path d="M309.1101,180.7322 C257.3001,202.4122 189.83,230.64 137.98,252.33 " fill="none" id="WebConsole-backto-RoleConfigurator" style="stroke:#181818;stroke-width:1.0;"/><polygon fill="#181818" points="320.18,176.1,313.101,174.7261,309.1101,180.7322,316.1891,182.1061,320.18,176.1" style="stroke:#181818;stroke-width:1.0;"/></g><!--reverse link WebConsole to RoleConletFilter--><g id="link_WebConsole_RoleConletFilter"><path d="M346.9976,185.3351 C329.0676,206.9451 309.57,230.43 291.56,252.13 " fill="none" id="WebConsole-backto-RoleConletFilter" style="stroke:#181818;stroke-width:1.0;"/><polygon fill="#181818" points="354.66,176.1,347.7504,178.1634,346.9976,185.3351,353.9071,183.2717,354.66,176.1" style="stroke:#181818;stroke-width:1.0;"/></g><!--link LoginConlet to WebConsole--><g id="link_LoginConlet_WebConsole"><path d="M274.25,153 C285.82,153 285.39,153 296.97,153 " fill="none" id="LoginConlet-to-WebConsole" style="stroke:#181818;stroke-width:1.0;"/><polygon fill="#181818" points="308.97,153,302.97,149,296.97,153,302.97,157,308.97,153" style="stroke:#181818;stroke-width:1.0;"/></g><!--reverse link WebConsole to OidcClient--><g id="link_WebConsole_OidcClient"><path d="M449.07,153 C460.66,153 460.25,153 471.85,153 " fill="none" id="WebConsole-backto-OidcClient" style="stroke:#181818;stroke-width:1.0;"/><polygon fill="#181818" points="437.07,153,443.07,157,449.07,153,443.07,149,437.07,153" style="stroke:#181818;stroke-width:1.0;"/></g><!--reverse link WebConsole to cpr--><g id="link_WebConsole_cpr"><path d="M399.2271,185.2979 C413.2371,202.0179 425.12,216.18 441.69,235.95 " fill="none" id="WebConsole-backto-cpr" style="stroke:#181818;stroke-width:1.0;"/><polygon fill="#181818" points="391.52,176.1,392.3076,183.268,399.2271,185.2979,398.4395,178.1299,391.52,176.1" style="stroke:#181818;stroke-width:1.0;"/></g><!--reverse link WebConsole to cc--><g id="link_WebConsole_cc"><path d="M442.7353,180.3419 C489.9453,198.1819 546,219.35 600.35,239.88 " fill="none" id="WebConsole-backto-cc" style="stroke:#181818;stroke-width:1.0;"/><polygon fill="#181818" points="431.51,176.1,435.7087,181.9627,442.7353,180.3419,438.5366,174.4792,431.51,176.1" style="stroke:#181818;stroke-width:1.0;"/></g><!--reverse link cpr to Some component--><g id="link_cpr_Some component"><path d="M517.1395,324.1897 C534.9395,343.8697 547.86,358.16 562.91,374.8 " fill="none" id="cpr-backto-Some component" style="stroke:#181818;stroke-width:1.0;"/><polygon fill="#181818" points="509.09,315.29,510.1482,322.423,517.1395,324.1897,516.0813,317.0567,509.09,315.29" style="stroke:#181818;stroke-width:1.0;"/></g><!--reverse link cc to Some component--><g id="link_cc_Some component"><path d="M648.8605,324.1897 C631.0605,343.8697 618.14,358.16 603.09,374.8 " fill="none" id="cc-backto-Some component" style="stroke:#181818;stroke-width:1.0;"/><polygon fill="#181818" points="656.91,315.29,649.9187,317.0567,648.8605,324.1897,655.8518,322.423,656.91,315.29" style="stroke:#181818;stroke-width:1.0;"/></g><!--SRC=[ZLDBIyD04BxdLmpr9bHQHUb12ZQq7YnOhEYXvh1kfkdIxKwOJPGY_dSdQVf-oLw6cM- -RrxhfyQbYjKCDCrISkWo-0a0eAFqz94fTt58bXWkUjrUD-oM8U8OkN8_j1gDcxkr-tLYzDIXzz2ykhvTCYLhfljxup9afsoxBQpDuksmRaEQhU8TKDY22STl07xLJYggAi5XDhS8Z3fJBh4OG03Xgj4EqxT7xfDMjgWIuwUtOKQCeFo9uAPk0ADt_0p9UR8OmMKzJ-imEfeRRSfNlexo65SC0x96pmlvuy7pyaTpewB_dGp1luWfdh59SbQI6Pq0MSnwneh-FiZYE1DWdnBZ5iXz39jaKe2UJQn3QsGCqVPEQYjJJi7AteW_t5WkBPLjoY8zvQpHruePwPHFJqE411FzYr-N5LV4-ZolBWklpWng0wOl8zVfGRaOmYLP-PT6GvhX-eD5vQa6YzeMR7k0WlzWw0y0]--></g></svg>