<?xml version="1.0" encoding="us-ascii" standalone="no"?><svg xmlns="http://www.w3.org/2000/svg" xmlns:xlink="http://www.w3.org/1999/xlink" contentStyleType="text/css" height="443px" preserveAspectRatio="none" style="width:788px;height:443px;background:#FFFFFF;" version="1.1" viewBox="0 0 788 443" width="788px" zoomAndPan="magnify"><defs/><g><!--cluster Providers and Conlets--><g id="cluster_Providers and Conlets"><rect fill="none" height="97.3" rx="2.5" ry="2.5" style="stroke:#181818;stroke-width:1.0;" width="196" x="484" y="339.78"/><text fill="#000000" font-family="sans-serif" font-size="14" font-weight="bold" lengthAdjust="spacing" textLength="175" x="494.5" y="354.7751">Providers and Conlets</text></g><!--entity Some component--><g id="elem_Some component"><rect fill="#FEFECE" height="46.2969" rx="2.5" ry="2.5" style="stroke:#A80036;stroke-width:1.25;" width="164" x="500" y="374.78"/><rect fill="#FEFECE" height="10" style="stroke:#A80036;stroke-width:1.25;" width="15" x="644" y="379.78"/><rect fill="#FEFECE" height="2" style="stroke:#A80036;stroke-width:1.25;" width="4" x="642" y="381.78"/><rect fill="#FEFECE" height="2" style="stroke:#A80036;stroke-width:1.25;" width="4" x="642" y="385.78"/><text fill="#000000" font-family="sans-serif" font-size="14" lengthAdjust="spacing" textLength="124" x="515" y="407.7751">Some component</text></g><!--entity BrowserLocalBackedKVStore--><g id="elem_BrowserLocalBackedKVStore"><rect fill="#F1F1F1" height="62.5938" rx="2.5" ry="2.5" style="stroke:#181818;stroke-width:1.0;" width="239" x="388.5" y="7"/><rect fill="#F1F1F1" height="10" style="stroke:#181818;stroke-width:1.0;" width="15" x="607.5" y="12"/><rect fill="#F1F1F1" height="2" style="stroke:#181818;stroke-width:1.0;" width="4" x="605.5" y="14"/><rect fill="#F1F1F1" height="2" style="stroke:#181818;stroke-width:1.0;" width="4" x="605.5" y="18"/><text fill="#000000" font-family="sans-serif" font-size="14" font-style="italic" lengthAdjust="spacing" textLength="72" x="467" y="39.9951">&#171;internal&#187;</text><text fill="#000000" font-family="sans-serif" font-size="14" lengthAdjust="spacing" textLength="199" x="403.5" y="56.292">BrowserLocalBackedKVStore</text></g><!--entity WebConsole--><g id="elem_WebConsole"><rect fill="#FEFECE" height="46.2969" rx="2.5" ry="2.5" style="stroke:#A80036;stroke-width:1.25;" width="128" x="308" y="129.6"/><rect fill="#FEFECE" height="10" style="stroke:#A80036;stroke-width:1.25;" width="15" x="416" y="134.6"/><rect fill="#FEFECE" height="2" style="stroke:#A80036;stroke-width:1.25;" width="4" x="414" y="136.6"/><rect fill="#FEFECE" height="2" style="stroke:#A80036;stroke-width:1.25;" width="4" x="414" y="140.6"/><text fill="#000000" font-family="sans-serif" font-size="14" lengthAdjust="spacing" textLength="88" x="323" y="162.5951">WebConsole</text></g><!--entity KVStoreBasedConsolePolicy--><g id="elem_KVStoreBasedConsolePolicy"><rect fill="#F1F1F1" height="62.5938" rx="2.5" ry="2.5" style="stroke:#181818;stroke-width:1.0;" width="235" x="118.5" y="7"/><rect fill="#F1F1F1" height="10" style="stroke:#181818;stroke-width:1.0;" width="15" x="333.5" y="12"/><rect fill="#F1F1F1" height="2" style="stroke:#181818;stroke-width:1.0;" width="4" x="331.5" y="14"/><rect fill="#F1F1F1" height="2" style="stroke:#181818;stroke-width:1.0;" width="4" x="331.5" y="18"/><text fill="#000000" font-family="sans-serif" font-size="14" font-style="italic" lengthAdjust="spacing" textLength="72" x="195" y="39.9951">&#171;internal&#187;</text><text fill="#000000" font-family="sans-serif" font-size="14" lengthAdjust="spacing" textLength="195" x="133.5" y="56.292">KVStoreBasedConsolePolicy</text></g><!--entity RoleConfigurator--><g id="elem_RoleConfigurator"><rect fill="#FEFECE" height="46.2969" rx="2.5" ry="2.5" style="stroke:#A80036;stroke-width:1.25;" width="156" x="7" y="252.19"/><rect fill="#FEFECE" height="10" style="stroke:#A80036;stroke-width:1.25;" width="15" x="143" y="257.19"/><rect fill="#FEFECE" height="2" style="stroke:#A80036;stroke-width:1.25;" width="4" x="141" y="259.19"/><rect fill="#FEFECE" height="2" style="stroke:#A80036;stroke-width:1.25;" width="4" x="141" y="263.19"/><text fill="#000000" font-family="sans-serif" font-size="14" lengthAdjust="spacing" textLength="116" x="22" y="285.1851">RoleConfigurator</text></g><!--entity RoleConletFilter--><g id="elem_RoleConletFilter"><rect fill="#FEFECE" height="46.2969" rx="2.5" ry="2.5" style="stroke:#A80036;stroke-width:1.25;" width="149" x="197.5" y="252.19"/><rect fill="#FEFECE" height="10" style="stroke:#A80036;stroke-width:1.25;" width="15" x="326.5" y="257.19"/><rect fill="#FEFECE" height="2" style="stroke:#A80036;stroke-width:1.25;" width="4" x="324.5" y="259.19"/><rect fill="#FEFECE" height="2" style="stroke:#A80036;stroke-width:1.25;" width="4" x="324.5" y="263.19"/><text fill="#000000" font-family="sans-serif" font-size="14" lengthAdjust="spacing" textLength="109" x="212.5" y="285.1851">RoleConletFilter</text></g><!--entity LoginConlet--><g id="elem_LoginConlet"><rect fill="#FEFECE" height="46.2969" rx="2.5" ry="2.5" style="stroke:#A80036;stroke-width:1.25;" width="122" x="151" y="129.6"/><rect fill="#FEFECE" height="10" style="stroke:#A80036;stroke-width:1.25;" width="15" x="253" y="134.6"/><rect fill="#FEFECE" height="2" style="stroke:#A80036;stroke-width:1.25;" width="4" x="251" y="136.6"/><rect fill="#FEFECE" height="2" style="stroke:#A80036;stroke-width:1.25;" width="4" x="251" y="140.6"/><text fill="#000000" font-family="sans-serif" font-size="14" lengthAdjust="spacing" textLength="82" x="166" y="162.5951">LoginConlet</text></g><!--entity OidcClient--><g id="elem_OidcClient"><rect fill="#FEFECE" height="46.2969" rx="2.5" ry="2.5" style="stroke:#A80036;stroke-width:1.25;" width="110" x="471" y="129.6"/><rect fill="#FEFECE" height="10" style="stroke:#A80036;stroke-width:1.25;" width="15" x="561" y="134.6"/><rect fill="#FEFECE" height="2" style="stroke:#A80036;stroke-width:1.25;" width="4" x="559" y="136.6"/><rect fill="#FEFECE" height="2" style="stroke:#A80036;stroke-width:1.25;" width="4" x="559" y="140.6"/><text fill="#000000" font-family="sans-serif" font-size="14" lengthAdjust="spacing" textLength="70" x="486" y="162.5951">OidcClient</text></g><!--entity cpr--><g id="elem_cpr"><rect fill="#F1F1F1" height="78.8906" rx="2.5" ry="2.5" style="stroke:#181818;stroke-width:1.0;" width="183" x="381.5" y="235.89"/><rect fill="#F1F1F1" height="10" style="stroke:#181818;stroke-width:1.0;" width="15" x="544.5" y="240.89"/><rect fill="#F1F1F1" height="2" style="stroke:#181818;stroke-width:1.0;" width="4" x="542.5" y="242.89"/><rect fill="#F1F1F1" height="2" style="stroke:#181818;stroke-width:1.0;" width="4" x="542.5" y="246.89"/><text fill="#000000" font-family="sans-serif" font-size="14" font-style="italic" lengthAdjust="spacing" textLength="72" x="432" y="268.8851">&#171;internal&#187;</text><text fill="#000000" font-family="sans-serif" font-size="14" lengthAdjust="spacing" textLength="143" x="396.5" y="285.182">ComponentCollector</text><text fill="#000000" font-family="sans-serif" font-size="14" lengthAdjust="spacing" textLength="131" x="396.5" y="301.4789">for page resources</text></g><!--entity cc--><g id="elem_cc"><rect fill="#F1F1F1" height="78.8906" rx="2.5" ry="2.5" style="stroke:#181818;stroke-width:1.0;" width="183" x="599.5" y="235.89"/><rect fill="#F1F1F1" height="10" style="stroke:#181818;stroke-width:1.0;" width="15" x="762.5" y="240.89"/><rect fill="#F1F1F1" height="2" style="stroke:#181818;stroke-width:1.0;" width="4" x="760.5" y="242.89"/><rect fill="#F1F1F1" height="2" style="stroke:#181818;stroke-width:1.0;" width="4" x="760.5" y="246.89"/><text fill="#000000" font-family="sans-serif" font-size="14" font-style="italic" lengthAdjust="spacing" textLength="72" x="650" y="268.8851">&#171;internal&#187;</text><text fill="#000000" font-family="sans-serif" font-size="14" lengthAdjust="spacing" textLength="143" x="614.5" y="285.182">ComponentCollector</text><text fill="#000000" font-family="sans-serif" font-size="14" lengthAdjust="spacing" textLength="73" x="614.5" y="301.4789">for conlets</text></g><!--link BrowserLocalBackedKVStore to WebConsole--><g id="link_BrowserLocalBackedKVStore_WebConsole"><path d="M470.84,70.02 C448.19,88.75 429.0003,104.6259 408.4403,121.6159 " fill="none" id="BrowserLocalBackedKVStore-to-WebConsole" style="stroke:#181818;stroke-width:1.0;"/><polygon fill="#181818" points="399.19,129.26,406.3632,128.5214,408.4403,121.6159,401.2671,122.3545,399.19,129.26" style="stroke:#181818;stroke-width:1.0;"/></g><!--link KVStoreBasedConsolePolicy to WebConsole--><g id="link_KVStoreBasedConsolePolicy_WebConsole"><path d="M273.16,70.02 C295.81,88.75 314.9997,104.6259 335.5597,121.6159 " fill="none" id="KVStoreBasedConsolePolicy-to-WebConsole" style="stroke:#181818;stroke-width:1.0;"/><polygon fill="#181818" points="344.81,129.26,342.7329,122.3545,335.5597,121.6159,337.6368,128.5214,344.81,129.26" style="stroke:#181818;stroke-width:1.0;"/></g><!--reverse link WebConsole to RoleConfigurator--><g id="link_WebConsole_RoleConfigurator"><path d="M307.287,180.9388 C256.027,202.4788 190.21,230.13 138.87,251.7 " fill="none" id="WebConsole-backto-RoleConfigurator" style="stroke:#181818;stroke-width:1.0;"/><polygon fill="#181818" points="318.35,176.29,311.2689,174.9267,307.287,180.9388,314.3681,182.302,318.35,176.29" style="stroke:#181818;stroke-width:1.0;"/></g><!--reverse link WebConsole to RoleConletFilter--><g id="link_WebConsole_RoleConletFilter"><path d="M345.7679,185.3754 C327.7979,207.0354 308.4,230.44 290.48,252.06 " fill="none" id="WebConsole-backto-RoleConletFilter" style="stroke:#181818;stroke-width:1.0;"/><polygon fill="#181818" points="353.43,176.14,346.5205,178.2037,345.7679,185.3754,352.6774,183.3117,353.43,176.14" style="stroke:#181818;stroke-width:1.0;"/></g><!--link LoginConlet to WebConsole--><g id="link_LoginConlet_WebConsole"><path d="M273.25,152.74 C284.69,152.74 284.14,152.74 295.58,152.74 " fill="none" id="LoginConlet-to-WebConsole" style="stroke:#181818;stroke-width:1.0;"/><polygon fill="#181818" points="307.58,152.74,301.58,148.74,295.58,152.74,301.58,156.74,307.58,152.74" style="stroke:#181818;stroke-width:1.0;"/></g><!--reverse link WebConsole to OidcClient--><g id="link_WebConsole_OidcClient"><path d="M448.37,152.74 C459.8,152.74 459.24,152.74 470.68,152.74 " fill="none" id="WebConsole-backto-OidcClient" style="stroke:#181818;stroke-width:1.0;"/><polygon fill="#181818" points="436.37,152.74,442.37,156.74,448.37,152.74,442.37,148.74,436.37,152.74" style="stroke:#181818;stroke-width:1.0;"/></g><!--reverse link WebConsole to cpr--><g id="link_WebConsole_cpr"><path d="M398.4651,185.3396 C412.3851,201.9596 424.01,215.84 440.43,235.45 " fill="none" id="WebConsole-backto-cpr" style="stroke:#181818;stroke-width:1.0;"/><polygon fill="#181818" points="390.76,176.14,391.546,183.3081,398.4651,185.3396,397.6791,178.1714,390.76,176.14" style="stroke:#181818;stroke-width:1.0;"/></g><!--reverse link WebConsole to cc--><g id="link_WebConsole_cc"><path d="M442.8547,180.5333 C489.9147,198.3233 545.18,219.21 599.05,239.58 " fill="none" id="WebConsole-backto-cc" style="stroke:#181818;stroke-width:1.0;"/><polygon fill="#181818" points="431.63,176.29,435.8279,182.1532,442.8547,180.5333,438.6568,174.6701,431.63,176.29" style="stroke:#181818;stroke-width:1.0;"/></g><!--reverse link cpr to Some component--><g id="link_cpr_Some component"><path d="M516.1364,324.0625 C533.8064,343.6125 546.57,357.73 561.6,374.36 " fill="none" id="cpr-backto-Some component" style="stroke:#181818;stroke-width:1.0;"/><polygon fill="#181818" points="508.09,315.16,509.1457,322.2934,516.1364,324.0625,515.0807,316.9291,508.09,315.16" style="stroke:#181818;stroke-width:1.0;"/></g><!--reverse link cc to Some component--><g id="link_cc_Some component"><path d="M647.8636,324.0625 C630.1936,343.6125 617.43,357.73 602.4,374.36 " fill="none" id="cc-backto-Some component" style="stroke:#181818;stroke-width:1.0;"/><polygon fill="#181818" points="655.91,315.16,648.9193,316.9291,647.8636,324.0625,654.8543,322.2934,655.91,315.16" style="stroke:#181818;stroke-width:1.0;"/></g><!--SRC=[ZLDBIyD04BxdLmpr9bHQHUb12ZQq7YnOhEYXvh1kfkdIxKwOJPGY_dSdQVf-oLw6cM- -RrxhfyQbYjKCDCrISkWo-0a0eAFqz94fTt58bXWkUjrUD-oM8U8OkN8_j1gDcxkr-tLYzDIXzz2ykhvTCYLhfljxup9afsoxBQpDuksmRaEQhU8TKDY22STl07xLJYggAi5XDhS8Z3fJBh4OG03Xgj4EqxT7xfDMjgWIuwUtOKQCeFo9uAPk0ADt_0p9UR8OmMKzJ-imEfeRRSfNlexo65SC0x96pmlvuy7pyaTpewB_dGp1luWfdh59SbQI6Pq0MSnwneh-FiZYE1DWdnBZ5iXz39jaKe2UJQn3QsGCqVPEQYjJJi7AteW_t5WkBPLjoY8zvQpHruePwPHFJqE411FzYr-N5LV4-ZolBWklpWng0wOl8zVfGRaOmYLP-PT6GvhX-eD5vQa6YzeMR7k0WlzWw0y0]--></g></svg>