<?xml version="1.0" encoding="us-ascii" standalone="no"?><svg xmlns="http://www.w3.org/2000/svg" xmlns:xlink="http://www.w3.org/1999/xlink" contentStyleType="text/css" height="549px" preserveAspectRatio="none" style="width:853px;height:549px;background:#FFFFFF;" version="1.1" viewBox="0 0 853 549" width="853px" zoomAndPan="magnify"><defs/><g><!--cluster Conceptual WebConsole--><g id="cluster_Conceptual WebConsole"><rect fill="none" height="203.59" rx="2.5" ry="2.5" style="stroke:#181818;stroke-width:1.0;" width="209" x="424.5" y="339.79"/><text fill="#000000" font-family="sans-serif" font-size="14" font-weight="bold" lengthAdjust="spacing" textLength="193" x="432.5" y="354.7851">Conceptual WebConsole</text></g><!--entity ConsoleWeblet--><g id="elem_ConsoleWeblet"><rect fill="#FEFECE" height="46.2969" rx="2.5" ry="2.5" style="stroke:#A80036;stroke-width:1.25;" width="145" x="456" y="374.79"/><rect fill="#FEFECE" height="10" style="stroke:#A80036;stroke-width:1.25;" width="15" x="581" y="379.79"/><rect fill="#FEFECE" height="2" style="stroke:#A80036;stroke-width:1.25;" width="4" x="579" y="381.79"/><rect fill="#FEFECE" height="2" style="stroke:#A80036;stroke-width:1.25;" width="4" x="579" y="385.79"/><text fill="#000000" font-family="sans-serif" font-size="14" lengthAdjust="spacing" textLength="105" x="471" y="407.7851">ConsoleWeblet</text></g><!--entity WebConsole--><g id="elem_WebConsole"><rect fill="#FEFECE" height="46.2969" rx="2.5" ry="2.5" style="stroke:#A80036;stroke-width:1.25;" width="128" x="464.5" y="481.08"/><rect fill="#FEFECE" height="10" style="stroke:#A80036;stroke-width:1.25;" width="15" x="572.5" y="486.08"/><rect fill="#FEFECE" height="2" style="stroke:#A80036;stroke-width:1.25;" width="4" x="570.5" y="488.08"/><rect fill="#FEFECE" height="2" style="stroke:#A80036;stroke-width:1.25;" width="4" x="570.5" y="492.08"/><text fill="#000000" font-family="sans-serif" font-size="14" lengthAdjust="spacing" textLength="88" x="479.5" y="514.0751">WebConsole</text></g><!--entity NioDispatcher--><g id="elem_NioDispatcher"><rect fill="#F1F1F1" height="62.5938" rx="2.5" ry="2.5" style="stroke:#181818;stroke-width:1.0;" width="137" x="434" y="7"/><rect fill="#F1F1F1" height="10" style="stroke:#181818;stroke-width:1.0;" width="15" x="551" y="12"/><rect fill="#F1F1F1" height="2" style="stroke:#181818;stroke-width:1.0;" width="4" x="549" y="14"/><rect fill="#F1F1F1" height="2" style="stroke:#181818;stroke-width:1.0;" width="4" x="549" y="18"/><text fill="#000000" font-family="sans-serif" font-size="14" font-style="italic" lengthAdjust="spacing" textLength="72" x="461.5" y="39.9951">&#171;internal&#187;</text><text fill="#000000" font-family="sans-serif" font-size="14" lengthAdjust="spacing" textLength="97" x="449" y="56.292">NioDispatcher</text></g><!--entity Manager--><g id="elem_Manager"><rect fill="#FEFECE" height="46.2969" rx="2.5" ry="2.5" style="stroke:#A80036;stroke-width:1.25;" width="100" x="277.5" y="137.75"/><rect fill="#FEFECE" height="10" style="stroke:#A80036;stroke-width:1.25;" width="15" x="357.5" y="142.75"/><rect fill="#FEFECE" height="2" style="stroke:#A80036;stroke-width:1.25;" width="4" x="355.5" y="144.75"/><rect fill="#FEFECE" height="2" style="stroke:#A80036;stroke-width:1.25;" width="4" x="355.5" y="148.75"/><text fill="#000000" font-family="sans-serif" font-size="14" lengthAdjust="spacing" textLength="60" x="292.5" y="170.7451">Manager</text></g><!--entity HttpConnector--><g id="elem_HttpConnector"><rect fill="#F1F1F1" height="62.5938" rx="2.5" ry="2.5" style="stroke:#181818;stroke-width:1.0;" width="142" x="256.5" y="7"/><rect fill="#F1F1F1" height="10" style="stroke:#181818;stroke-width:1.0;" width="15" x="378.5" y="12"/><rect fill="#F1F1F1" height="2" style="stroke:#181818;stroke-width:1.0;" width="4" x="376.5" y="14"/><rect fill="#F1F1F1" height="2" style="stroke:#181818;stroke-width:1.0;" width="4" x="376.5" y="18"/><text fill="#000000" font-family="sans-serif" font-size="14" font-style="italic" lengthAdjust="spacing" textLength="72" x="286.5" y="39.9951">&#171;internal&#187;</text><text fill="#000000" font-family="sans-serif" font-size="14" lengthAdjust="spacing" textLength="102" x="271.5" y="56.292">HttpConnector</text></g><!--entity FileSystemWatcher--><g id="elem_FileSystemWatcher"><rect fill="#F1F1F1" height="62.5938" rx="2.5" ry="2.5" style="stroke:#181818;stroke-width:1.0;" width="171" x="51" y="7"/><rect fill="#F1F1F1" height="10" style="stroke:#181818;stroke-width:1.0;" width="15" x="202" y="12"/><rect fill="#F1F1F1" height="2" style="stroke:#181818;stroke-width:1.0;" width="4" x="200" y="14"/><rect fill="#F1F1F1" height="2" style="stroke:#181818;stroke-width:1.0;" width="4" x="200" y="18"/><text fill="#000000" font-family="sans-serif" font-size="14" font-style="italic" lengthAdjust="spacing" textLength="72" x="95.5" y="39.9951">&#171;internal&#187;</text><text fill="#000000" font-family="sans-serif" font-size="14" lengthAdjust="spacing" textLength="131" x="66" y="56.292">FileSystemWatcher</text></g><!--entity YamlConfigurationStore--><g id="elem_YamlConfigurationStore"><rect fill="#F1F1F1" height="62.5938" rx="2.5" ry="2.5" style="stroke:#181818;stroke-width:1.0;" width="202" x="40.5" y="129.6"/><rect fill="#F1F1F1" height="10" style="stroke:#181818;stroke-width:1.0;" width="15" x="222.5" y="134.6"/><rect fill="#F1F1F1" height="2" style="stroke:#181818;stroke-width:1.0;" width="4" x="220.5" y="136.6"/><rect fill="#F1F1F1" height="2" style="stroke:#181818;stroke-width:1.0;" width="4" x="220.5" y="140.6"/><text fill="#000000" font-family="sans-serif" font-size="14" font-style="italic" lengthAdjust="spacing" textLength="72" x="100.5" y="162.5951">&#171;internal&#187;</text><text fill="#000000" font-family="sans-serif" font-size="14" lengthAdjust="spacing" textLength="162" x="55.5" y="178.892">YamlConfigurationStore</text></g><!--entity Controller--><g id="elem_Controller"><rect fill="#FEFECE" height="46.2969" rx="2.5" ry="2.5" style="stroke:#A80036;stroke-width:1.25;" width="107" x="88" y="260.34"/><rect fill="#FEFECE" height="10" style="stroke:#A80036;stroke-width:1.25;" width="15" x="175" y="265.34"/><rect fill="#FEFECE" height="2" style="stroke:#A80036;stroke-width:1.25;" width="4" x="173" y="267.34"/><rect fill="#FEFECE" height="2" style="stroke:#A80036;stroke-width:1.25;" width="4" x="173" y="271.34"/><text fill="#000000" font-family="sans-serif" font-size="14" lengthAdjust="spacing" textLength="67" x="103" y="293.3351">Controller</text></g><!--entity VmWatcher--><g id="elem_VmWatcher"><rect fill="#FEFECE" height="46.2969" rx="2.5" ry="2.5" style="stroke:#A80036;stroke-width:1.25;" width="119" x="7" y="374.79"/><rect fill="#FEFECE" height="10" style="stroke:#A80036;stroke-width:1.25;" width="15" x="106" y="379.79"/><rect fill="#FEFECE" height="2" style="stroke:#A80036;stroke-width:1.25;" width="4" x="104" y="381.79"/><rect fill="#FEFECE" height="2" style="stroke:#A80036;stroke-width:1.25;" width="4" x="104" y="385.79"/><text fill="#000000" font-family="sans-serif" font-size="14" lengthAdjust="spacing" textLength="79" x="22" y="407.7851">VmWatcher</text></g><!--entity Reconciler--><g id="elem_Reconciler"><rect fill="#FEFECE" height="46.2969" rx="2.5" ry="2.5" style="stroke:#A80036;stroke-width:1.25;" width="113" x="161" y="374.79"/><rect fill="#FEFECE" height="10" style="stroke:#A80036;stroke-width:1.25;" width="15" x="254" y="379.79"/><rect fill="#FEFECE" height="2" style="stroke:#A80036;stroke-width:1.25;" width="4" x="252" y="381.79"/><rect fill="#FEFECE" height="2" style="stroke:#A80036;stroke-width:1.25;" width="4" x="252" y="385.79"/><text fill="#000000" font-family="sans-serif" font-size="14" lengthAdjust="spacing" textLength="73" x="176" y="407.7851">Reconciler</text></g><!--entity GuiHttpServer--><g id="elem_GuiHttpServer"><rect fill="#FEFECE" height="46.2969" rx="2.5" ry="2.5" style="stroke:#A80036;stroke-width:1.25;" width="136" x="460.5" y="260.34"/><rect fill="#FEFECE" height="10" style="stroke:#A80036;stroke-width:1.25;" width="15" x="576.5" y="265.34"/><rect fill="#FEFECE" height="2" style="stroke:#A80036;stroke-width:1.25;" width="4" x="574.5" y="267.34"/><rect fill="#FEFECE" height="2" style="stroke:#A80036;stroke-width:1.25;" width="4" x="574.5" y="271.34"/><text fill="#000000" font-family="sans-serif" font-size="14" lengthAdjust="spacing" textLength="96" x="475.5" y="293.3351">GuiHttpServer</text></g><!--entity GuiSocketServer:8080--><g id="elem_GuiSocketServer:8080"><rect fill="#FEFECE" height="46.2969" rx="2.5" ry="2.5" style="stroke:#A80036;stroke-width:1.25;" width="196" x="229.5" y="260.34"/><rect fill="#FEFECE" height="10" style="stroke:#A80036;stroke-width:1.25;" width="15" x="405.5" y="265.34"/><rect fill="#FEFECE" height="2" style="stroke:#A80036;stroke-width:1.25;" width="4" x="403.5" y="267.34"/><rect fill="#FEFECE" height="2" style="stroke:#A80036;stroke-width:1.25;" width="4" x="403.5" y="271.34"/><text fill="#000000" font-family="sans-serif" font-size="14" lengthAdjust="spacing" textLength="156" x="244.5" y="293.3351">GuiSocketServer:8080</text></g><!--entity PreferencesStore--><g id="elem_PreferencesStore"><rect fill="#F1F1F1" height="62.5938" rx="2.5" ry="2.5" style="stroke:#181818;stroke-width:1.0;" width="161" x="430" y="129.6"/><rect fill="#F1F1F1" height="10" style="stroke:#181818;stroke-width:1.0;" width="15" x="571" y="134.6"/><rect fill="#F1F1F1" height="2" style="stroke:#181818;stroke-width:1.0;" width="4" x="569" y="136.6"/><rect fill="#F1F1F1" height="2" style="stroke:#181818;stroke-width:1.0;" width="4" x="569" y="140.6"/><text fill="#000000" font-family="sans-serif" font-size="14" font-style="italic" lengthAdjust="spacing" textLength="72" x="469.5" y="162.5951">&#171;internal&#187;</text><text fill="#000000" font-family="sans-serif" font-size="14" lengthAdjust="spacing" textLength="121" x="445" y="178.892">PreferencesStore</text></g><!--entity InMemorySessionManager--><g id="elem_InMemorySessionManager"><rect fill="#F1F1F1" height="62.5938" rx="2.5" ry="2.5" style="stroke:#181818;stroke-width:1.0;" width="222" x="625.5" y="129.6"/><rect fill="#F1F1F1" height="10" style="stroke:#181818;stroke-width:1.0;" width="15" x="827.5" y="134.6"/><rect fill="#F1F1F1" height="2" style="stroke:#181818;stroke-width:1.0;" width="4" x="825.5" y="136.6"/><rect fill="#F1F1F1" height="2" style="stroke:#181818;stroke-width:1.0;" width="4" x="825.5" y="140.6"/><text fill="#000000" font-family="sans-serif" font-size="14" font-style="italic" lengthAdjust="spacing" textLength="72" x="695.5" y="162.5951">&#171;internal&#187;</text><text fill="#000000" font-family="sans-serif" font-size="14" lengthAdjust="spacing" textLength="182" x="640.5" y="178.892">InMemorySessionManager</text></g><!--entity LanguageSelector--><g id="elem_LanguageSelector"><rect fill="#F1F1F1" height="62.5938" rx="2.5" ry="2.5" style="stroke:#181818;stroke-width:1.0;" width="165" x="632" y="252.19"/><rect fill="#F1F1F1" height="10" style="stroke:#181818;stroke-width:1.0;" width="15" x="777" y="257.19"/><rect fill="#F1F1F1" height="2" style="stroke:#181818;stroke-width:1.0;" width="4" x="775" y="259.19"/><rect fill="#F1F1F1" height="2" style="stroke:#181818;stroke-width:1.0;" width="4" x="775" y="263.19"/><text fill="#000000" font-family="sans-serif" font-size="14" font-style="italic" lengthAdjust="spacing" textLength="72" x="673.5" y="285.1851">&#171;internal&#187;</text><text fill="#000000" font-family="sans-serif" font-size="14" lengthAdjust="spacing" textLength="125" x="647" y="301.482">LanguageSelector</text></g><!--link NioDispatcher to Manager--><g id="link_NioDispatcher_Manager"><path d="M457.89,70.04 C427.41,91.05 397.5802,111.5996 370.0302,130.5896 " fill="none" id="NioDispatcher-to-Manager" style="stroke:#181818;stroke-width:1.0;"/><polygon fill="#181818" points="360.15,137.4,367.3602,137.2882,370.0302,130.5896,362.82,130.7014,360.15,137.4" style="stroke:#181818;stroke-width:1.0;"/></g><!--link HttpConnector to Manager--><g id="link_HttpConnector_Manager"><path d="M327.5,70.04 C327.5,91.12 327.5,106.59 327.5,125.58 " fill="none" id="HttpConnector-to-Manager" style="stroke:#181818;stroke-width:1.0;"/><polygon fill="#181818" points="327.5,137.58,331.5,131.58,327.5,125.58,323.5,131.58,327.5,137.58" style="stroke:#181818;stroke-width:1.0;"/></g><!--link FileSystemWatcher to Manager--><g id="link_FileSystemWatcher_Manager"><path d="M185.19,70.04 C218.46,91.05 251.6549,112.0009 281.7149,130.9909 " fill="none" id="FileSystemWatcher-to-Manager" style="stroke:#181818;stroke-width:1.0;"/><polygon fill="#181818" points="291.86,137.4,288.9238,130.8138,281.7149,130.9909,284.6511,137.5772,291.86,137.4" style="stroke:#181818;stroke-width:1.0;"/></g><!--link YamlConfigurationStore to Manager--><g id="link_YamlConfigurationStore_Manager"><path d="M242.86,160.9 C254.32,160.9 253.78,160.9 265.24,160.9 " fill="none" id="YamlConfigurationStore-to-Manager" style="stroke:#181818;stroke-width:1.0;"/><polygon fill="#181818" points="277.24,160.9,271.24,156.9,265.24,160.9,271.24,164.9,277.24,160.9" style="stroke:#181818;stroke-width:1.0;"/></g><!--reverse link YamlConfigurationStore to Controller--><!--reverse link Manager to Controller--><g id="link_Manager_Controller"><path d="M282.8811,190.8282 C249.5811,212.4182 209.53,238.38 176.18,260 " fill="none" id="Manager-backto-Controller" style="stroke:#181818;stroke-width:1.0;"/><polygon fill="#181818" points="292.95,184.3,285.7395,184.2078,282.8811,190.8282,290.0916,190.9204,292.95,184.3" style="stroke:#181818;stroke-width:1.0;"/></g><!--reverse link Controller to VmWatcher--><g id="link_Controller_VmWatcher"><path d="M119.8436,316.9546 C106.7636,336.5746 94.54,354.89 81.47,374.49 " fill="none" id="Controller-backto-VmWatcher" style="stroke:#181818;stroke-width:1.0;"/><polygon fill="#181818" points="126.5,306.97,119.8436,309.7435,119.8436,316.9546,126.5,314.1811,126.5,306.97" style="stroke:#181818;stroke-width:1.0;"/></g><!--reverse link Controller to Reconciler--><g id="link_Controller_Reconciler"><path d="M163.4159,316.9147 C176.6659,336.5347 189.08,354.89 202.33,374.49 " fill="none" id="Controller-backto-Reconciler" style="stroke:#181818;stroke-width:1.0;"/><polygon fill="#181818" points="156.7,306.97,156.7431,314.181,163.4159,316.9147,163.3729,309.7037,156.7,306.97" style="stroke:#181818;stroke-width:1.0;"/></g><!--link Controller to GuiHttpServer--><!--reverse link Manager to GuiSocketServer:8080--><g id="link_Manager_GuiSocketServer:8080"><path d="M327.5,196.3 C327.5,217.96 327.5,238.59 327.5,260.21 " fill="none" id="Manager-backto-GuiSocketServer:8080" style="stroke:#181818;stroke-width:1.0;"/><polygon fill="#181818" points="327.5,184.3,323.5,190.3,327.5,196.3,331.5,190.3,327.5,184.3" style="stroke:#181818;stroke-width:1.0;"/></g><!--reverse link Manager to GuiHttpServer--><g id="link_Manager_GuiHttpServer"><path d="M375.1297,190.4744 C411.1097,212.0644 454.99,238.38 491.02,260 " fill="none" id="Manager-backto-GuiHttpServer" style="stroke:#181818;stroke-width:1.0;"/><polygon fill="#181818" points="364.84,184.3,367.9267,190.8171,375.1297,190.4744,372.043,183.9573,364.84,184.3" style="stroke:#181818;stroke-width:1.0;"/></g><!--link PreferencesStore to GuiHttpServer--><g id="link_PreferencesStore_GuiHttpServer"><path d="M515.09,192.64 C518.23,213.71 520.5712,229.3211 523.4012,248.3111 " fill="none" id="PreferencesStore-to-GuiHttpServer" style="stroke:#181818;stroke-width:1.0;"/><polygon fill="#181818" points="525.17,260.18,528.2419,253.6559,523.4012,248.3111,520.3293,254.8351,525.17,260.18" style="stroke:#181818;stroke-width:1.0;"/></g><!--link InMemorySessionManager to GuiHttpServer--><g id="link_InMemorySessionManager_GuiHttpServer"><path d="M683.47,192.64 C647.25,213.64 610.4303,234.9792 577.6903,253.9692 " fill="none" id="InMemorySessionManager-to-GuiHttpServer" style="stroke:#181818;stroke-width:1.0;"/><polygon fill="#181818" points="567.31,259.99,574.5071,260.4397,577.6903,253.9692,570.4932,253.5195,567.31,259.99" style="stroke:#181818;stroke-width:1.0;"/></g><!--reverse link GuiHttpServer to LanguageSelector--><g id="link_GuiHttpServer_LanguageSelector"><path d="M608.8,283.49 C620.44,283.49 620.09,283.49 631.74,283.49 " fill="none" id="GuiHttpServer-backto-LanguageSelector" style="stroke:#181818;stroke-width:1.0;"/><polygon fill="#181818" points="596.8,283.49,602.8,287.49,608.8,283.49,602.8,279.49,596.8,283.49" style="stroke:#181818;stroke-width:1.0;"/></g><!--reverse link ConsoleWeblet to WebConsole--><g id="link_ConsoleWeblet_WebConsole"><path d="M528.5,433.57 C528.5,451.06 528.5,463.16 528.5,480.64 " fill="none" id="ConsoleWeblet-backto-WebConsole" style="stroke:#181818;stroke-width:1.0;"/><polygon fill="#181818" points="528.5,421.57,524.5,427.57,528.5,433.57,532.5,427.57,528.5,421.57" style="stroke:#181818;stroke-width:1.0;"/></g><!--reverse link GuiHttpServer to ConsoleWeblet--><g id="link_GuiHttpServer_ConsoleWeblet"><path d="M528.5,318.97 C528.5,338.59 528.5,354.89 528.5,374.49 " fill="none" id="GuiHttpServer-backto-ConsoleWeblet" style="stroke:#181818;stroke-width:1.0;"/><polygon fill="#181818" points="528.5,306.97,524.5,312.97,528.5,318.97,532.5,312.97,528.5,306.97" style="stroke:#181818;stroke-width:1.0;"/></g><!--SRC=[ZPHHQzim4CVV_IcEzgsGacnqX58ARPQqXRMCkgoCu0TDlZWYyib8yaOe- -uzEsuSsGafVjBT__w_auwpMoagX1KvI9CNXf0yl4K0S2lawiwQajA9qSR2wMmwcqwcTShO56qJlXaFXr-_jU6NfP8hGkTWTFxbuiCfQvskhXHvj2JqzJMxZgglunfAHkFgsqC8PEpnFmAtlKx1L95XxDSQmQBqWZAD4KGmsLxqIPdloXN2ooLQ4AuJsFMFOFueY0rj0cU3iXZ0F10dkxxttXSJGyHKK_k6WIE-WJZmdIcDyTfvp5_Rdll18_wzWe3nM-IQwGkLbLPuPIZcBh027SWSfcbSUERjhsFeeGoNMfKj_NofqXGfOGzMUMkqhfeD8PraSDgaV-tSivzzHcb8gZt5lIRkIbND9aRxjrQ7ZQJc7sr4iP4hz1lPvNWu7YQzbhjMxVl_jBX0YoJHRL- -5-kyUUZsCUTkLO1ve4VCZLt7l4Vyy4rt5Un0vbF8_RK1-0VlOLaj9khjUlHYns3rP9ZNBQo7qcm-dF0m9HQ-51fUyG-VdD5uilczpPiZ9pJwPYgjAgd_9dtme5lu3W00]--></g></svg>